<svg width="570" height="566" viewBox="0 0 570 566" fill="none" xmlns="http://www.w3.org/2000/svg">
<path fill-rule="evenodd" clip-rule="evenodd" d="M23.6644 11.6766C42.9745 21.5937 61.2055 30.9621 82.5564 34.6701C105.047 38.5721 127.621 35.1912 149.445 31.9156C155.25 31.0451 161.251 30.147 167.157 29.4007C196.403 25.6881 218.2 28.0378 237.806 37.0013C257.037 45.7939 273.935 60.6952 285.377 78.9627C294.6 93.693 299.466 110.713 304.172 127.175C306.592 135.651 309.098 144.411 312.165 152.753C314.357 158.718 316.909 164.844 319.367 170.767C327.583 190.569 336.091 211.039 334.962 232.397C333.205 265.428 312.759 290.291 292.976 314.341C281.265 328.582 269.145 343.313 260.842 359.701C245.295 390.423 240.267 417.463 245.897 440.069C247.219 445.374 248.798 450.562 250.323 455.573C256.442 475.7 262.231 494.714 249.093 515.517C243.974 523.625 238.241 531.289 232.706 538.696C226.205 547.39 219.56 556.291 213.846 566H214.956C220.578 556.521 227.094 547.798 233.463 539.274C239.021 531.851 244.758 524.165 249.899 516.034C263.265 494.854 257.423 475.636 251.232 455.298C249.714 450.295 248.143 445.125 246.821 439.839C241.248 417.463 246.257 390.646 261.694 360.134C269.948 343.837 282.03 329.154 293.714 314.948C313.589 290.78 334.137 265.792 335.905 232.448C337.049 210.873 328.51 190.298 320.245 170.399C317.788 164.485 315.243 158.368 313.062 152.421C310.003 144.112 307.508 135.369 305.085 126.912C300.359 110.386 295.483 93.2964 286.18 78.4559C274.635 60.0318 257.601 45.0019 238.203 36.1353C218.424 27.0888 196.478 24.721 167.036 28.4517C161.122 29.1981 155.113 30.1006 149.305 30.9715C127.545 34.2328 105.055 37.6043 82.723 33.7261C61.5084 30.0414 43.3342 20.7088 24.0998 10.8246C21.2979 9.38692 18.4961 7.94551 15.6753 6.5173C11.287 4.30235 6.82291 2.09609 2.28692 0H0C5.17208 2.34399 10.2609 4.85062 15.2512 7.37385C18.072 8.79753 20.8739 10.2389 23.6644 11.6766Z" fill="white" fill-opacity="0.3"/>
<path fill-rule="evenodd" clip-rule="evenodd" d="M254.864 550.854C250.591 555.782 246.247 560.804 242.088 566H243.321C247.321 561.034 251.483 556.216 255.585 551.48C263.413 542.454 271.503 533.123 278.208 522.969C292.642 501.136 294.023 479.349 282.693 452.328C273.495 430.405 263.99 407.743 270.463 381.59C277.339 353.824 295.484 331.972 313.033 310.84C327.547 293.346 342.554 275.262 351.243 253.843C361.056 229.666 359.963 201.965 348.01 171.523C347.233 169.533 346.436 167.547 345.65 165.558C341.655 155.521 337.526 145.139 334.68 134.535C332.282 125.618 331.14 116.332 330.047 107.351C329.66 104.204 329.262 100.948 328.818 97.7463C326.917 84.1952 322.918 72.0348 315.83 58.3131C310.688 48.3458 303.209 39.8426 295.977 31.6217C292.957 28.1894 289.834 24.6425 286.935 21.0458C282.154 15.1133 277.289 7.98702 275.54 0H274.55C276.299 8.23983 281.285 15.5548 286.195 21.6438C289.101 25.2594 292.232 28.8162 295.252 32.2518C302.45 40.432 309.891 48.8892 314.983 58.7553C322.007 72.3763 325.98 84.4442 327.862 97.8803C328.317 101.073 328.716 104.324 329.095 107.466C330.207 116.48 331.345 125.802 333.755 134.785C336.616 145.443 340.755 155.848 344.759 165.912C345.548 167.897 346.345 169.883 347.122 171.873C358.98 202.08 360.073 229.537 350.363 253.484C341.731 274.765 326.769 292.793 312.289 310.222C294.679 331.447 276.466 353.381 269.537 381.359C262.977 407.818 272.558 430.635 281.812 452.698C293.01 479.387 291.651 500.895 277.422 522.444C270.744 532.542 262.673 541.847 254.864 550.854Z" fill="white" fill-opacity="0.3"/>
<path fill-rule="evenodd" clip-rule="evenodd" d="M134.916 100.207C127.525 100.207 119.712 100.589 111.04 101.371C87.7123 103.481 71.5521 110.519 61.6337 122.896C49.4597 138.096 49.8375 158.801 51.5227 175.138C51.9761 179.441 52.4749 183.771 52.9623 187.962C55.0404 205.742 56.9938 222.53 55.2142 240.371C54.3301 249.283 52.6147 258.256 50.9522 266.934C47.9181 282.77 44.7896 299.149 46.6259 315.62C56.378 357.094 109.438 360.328 125.47 360.328C127.352 360.328 129.241 360.291 131.096 360.217C181.795 358.181 220.641 319.886 245.453 291.259C266.503 266.966 274.199 244.516 269.677 220.605C265.158 196.659 250.611 172.527 236.978 152.08C222.375 130.178 202.761 114.521 180.272 106.812C167.304 102.367 152.47 100.207 134.916 100.207ZM125.47 361.285C107.371 361.285 90.0926 357.867 76.838 351.668C59.9107 343.754 49.4331 331.686 45.6963 315.786C43.8222 299.112 46.9772 282.664 50.0226 266.754C51.6737 258.095 53.3891 249.145 54.2733 240.274C56.034 222.54 54.0881 205.796 52.0214 188.072C51.5339 183.881 51.0276 179.547 50.5818 175.24C48.8777 158.718 48.4999 137.769 60.8968 122.298C70.9776 109.709 87.3533 102.551 110.949 100.418C119.659 99.6303 127.488 99.2481 134.916 99.2481C152.58 99.2481 167.516 101.427 180.578 105.904C203.271 113.684 223.047 129.469 237.772 151.55C251.45 172.075 266.053 196.313 270.617 220.426C275.193 244.65 267.428 267.358 246.164 291.885C221.241 320.65 182.199 359.12 131.134 361.175C129.26 361.248 127.363 361.285 125.47 361.285Z" fill="white" fill-opacity="0.3"/>
<path fill-rule="evenodd" clip-rule="evenodd" d="M130.525 120.358C114.89 120.358 101.772 123.716 91.5208 130.344C78.047 139.068 71.8466 154.471 73.0935 176.124C73.3882 178.879 73.6829 181.647 73.9852 184.415C76.8266 210.841 79.77 238.173 77.8241 265.516C75.8782 292.83 81.9388 311.199 96.3572 321.673C107.666 329.9 120.497 334.063 134.5 334.063C176.123 334.063 213.858 298.605 224.441 287.731C245.574 266.012 253.951 246.138 250.803 225.194C247.648 204.18 234.779 179.961 215.502 158.745C197.947 139.418 176.074 126.861 152.259 122.426C144.868 121.053 137.553 120.358 130.525 120.358ZM134.512 335.021C134.5 335.021 134.512 335.021 134.5 335.021C120.293 335.021 107.277 330.793 95.8018 322.456C81.0887 311.76 74.8996 293.116 76.872 265.446C78.8103 238.187 76.0067 212.116 73.0369 184.517C72.7422 181.748 72.4474 178.98 72.1489 176.202C70.8794 154.158 77.2233 138.459 91.0145 129.537C101.413 122.813 114.705 119.4 130.525 119.4C137.617 119.4 144.989 120.104 152.425 121.486C176.452 125.959 198.51 138.621 216.201 158.101C235.61 179.449 248.563 203.854 251.744 225.05C254.937 246.317 246.477 266.445 225.122 288.403C214.478 299.333 176.49 335.021 134.512 335.021Z" fill="white" fill-opacity="0.3"/>
<path fill-rule="evenodd" clip-rule="evenodd" d="M107.749 195.216C109.227 205.391 110.167 215.787 111.071 225.842C112.064 236.975 113.1 248.486 114.872 259.652C116.621 270.674 122.462 289.821 141.91 294.229C145.125 294.958 148.522 295.335 151.991 295.335C178.364 295.335 209.045 273.589 218.989 247.851C231.957 214.268 198.216 181.347 176.233 167.188C167.006 161.247 152.829 154.163 137.663 154.163C132.01 154.163 126.622 155.18 121.669 157.179C107.602 162.863 107.096 179.777 107.749 195.216ZM152.002 299.158C151.991 299.158 151.991 299.158 151.991 299.158C148.235 299.158 144.566 298.753 141.079 297.96C119.436 293.06 113.016 272.231 111.116 260.251C109.325 248.956 108.282 237.382 107.277 226.188C106.374 216.152 105.444 205.774 103.975 195.673L103.956 195.479C103.404 182.513 102.471 160.809 120.248 153.632C125.663 151.45 131.519 150.339 137.663 150.339C153.744 150.339 168.631 157.751 178.281 163.968C201.242 178.754 236.396 213.351 222.53 249.237C212.079 276.299 179.773 299.158 152.002 299.158Z" fill="white" fill-opacity="0.3"/>
<path fill-rule="evenodd" clip-rule="evenodd" d="M266.776 566C268.732 563.456 270.703 560.98 272.637 558.584C274.63 556.13 276.658 553.681 278.693 551.213C290.568 536.863 302.855 522.019 309.014 504.163C317.46 479.668 307.586 458.921 297.131 436.963L295.647 433.838C284.614 410.551 282.428 389.619 288.949 369.843C295.76 349.185 309.935 331.604 322.705 316.75C325.73 313.23 328.845 309.691 331.865 306.273C342.691 294.018 353.871 281.348 362.613 267.033C364.244 264.361 365.894 261.556 367.487 258.838C377.289 242.154 387.42 224.901 404.978 216.815C411.692 213.723 419.009 211.909 426.1 210.158C431.013 208.936 436.091 207.679 440.951 205.997C449.349 203.1 457.554 199.396 465.491 195.816C470.588 193.511 475.859 191.13 481.127 188.992C508.54 177.843 533.993 176.673 556.788 185.509C561.104 187.182 565.843 189.383 570 192.143V191.015C566.443 188.707 562.146 186.559 557.132 184.615C534.103 175.687 508.411 176.862 480.775 188.103C475.482 190.249 470.199 192.637 465.094 194.94C457.184 198.515 448.998 202.205 440.645 205.095C435.823 206.762 430.764 208.015 425.866 209.227C418.745 210.992 411.378 212.816 404.585 215.944C386.744 224.154 376.542 241.537 366.668 258.349C365.074 261.063 363.432 263.868 361.801 266.531C353.105 280.777 341.951 293.41 331.159 305.638C328.135 309.056 325.008 312.603 321.988 316.124C309.165 331.051 294.911 348.715 288.042 369.54C281.442 389.57 283.647 410.736 294.79 434.242L296.274 437.378C306.635 459.148 316.437 479.725 308.111 503.85C302.009 521.551 289.783 536.32 277.968 550.605C275.929 553.062 273.89 555.523 271.9 557.984C269.809 560.561 267.679 563.245 265.568 566H266.776Z" fill="white" fill-opacity="0.3"/>
<path fill-rule="evenodd" clip-rule="evenodd" d="M295.448 551.601C291.668 556.315 287.857 561.093 284.19 566H288.976C292.077 561.931 295.263 557.933 298.429 553.984C302.668 548.671 307.067 543.183 311.113 537.651C325.636 517.799 343.708 493.104 335.855 466.531C332.579 455.454 326.348 445.641 320.312 436.149C312.322 423.553 304.769 411.665 303.252 396.859C298.835 353.881 335.172 320.191 364.37 293.111L366.721 290.93C384.66 274.278 401.306 259.882 423.44 252.291C433.181 248.953 443.605 247.277 453.676 245.656C455.705 245.33 457.73 245.003 459.751 244.667C460.479 244.548 461.305 244.395 462.212 244.235C469.462 242.927 482.957 240.492 489.134 244.819C490.848 246.025 491.864 247.673 492.243 249.86C493.381 256.498 490.56 264.813 488.057 272.146C487.458 273.9 486.893 275.558 486.4 277.132C483.15 287.606 479.226 298.167 474.403 309.427C466.386 328.155 456.353 347.757 442.82 371.108C439.54 376.743 435.79 382.607 431.808 388.811C413.001 418.186 391.679 451.479 405.891 484.958C414.157 504.448 428.794 522.973 440.613 536.93C450.009 548.026 459.796 557.752 469.841 566H475.961C464.794 557.3 453.926 546.747 443.521 534.456C431.877 520.71 417.471 502.479 409.398 483.457C395.975 451.838 416.72 419.453 435.031 390.874C439.02 384.632 442.797 378.742 446.111 373.022C459.732 349.534 469.83 329.812 477.914 310.938C482.783 299.557 486.753 288.867 490.048 278.269C490.522 276.741 491.075 275.112 491.671 273.381C494.317 265.613 497.317 256.811 496.001 249.211C495.448 246.011 493.874 243.48 491.318 241.688C483.837 236.45 469.879 238.968 461.537 240.468C460.646 240.629 459.834 240.777 459.121 240.897C457.112 241.233 455.094 241.56 453.073 241.881C442.835 243.53 432.256 245.228 422.211 248.673C399.361 256.507 382.385 271.175 364.127 288.126L361.776 290.308C331.957 317.963 294.846 352.38 299.456 397.255C301.064 412.955 309.213 425.789 317.1 438.193C322.981 447.463 329.071 457.057 332.192 467.617C339.514 492.368 322.064 516.226 308.026 535.396C304.029 540.856 299.669 546.314 295.448 551.601Z" fill="white" fill-opacity="0.3"/>
<path fill-rule="evenodd" clip-rule="evenodd" d="M417.515 287.367C403.187 287.367 389.158 295.648 376.141 304.602C336.49 331.872 317.156 360.217 318.671 388.887C320.874 406.701 332.164 425.145 347.433 435.82C352.617 439.442 358.806 443.155 365.456 443.155C367.009 443.155 368.546 442.944 370.031 442.548C378.438 440.261 384.506 432.922 389.875 426.443C414.579 396.615 440.415 360.936 445.15 322.06C446.68 309.494 442.845 293.216 426.987 288.675C423.953 287.804 420.768 287.367 417.515 287.367ZM365.455 444.103C358.549 444.103 352.193 440.318 346.888 436.605C331.408 425.779 319.96 407.079 317.719 388.967C316.189 359.913 335.67 331.282 375.604 303.811C388.749 294.773 402.918 286.408 417.514 286.408C420.851 286.408 424.127 286.86 427.244 287.754C443.684 292.461 447.666 309.237 446.09 322.17C441.33 361.304 415.398 397.113 390.657 426.987C385.152 433.639 378.971 441.11 370.284 443.469C368.712 443.891 367.091 444.103 365.455 444.103Z" fill="white" fill-opacity="0.3"/>
<path fill-rule="evenodd" clip-rule="evenodd" d="M393.869 329.697C385.198 329.697 375.918 334.607 372.34 336.726C356.289 346.178 341.648 364.805 345.128 385.08C348.29 395.74 355.375 401.638 365.078 401.638C373.492 401.638 382.836 396.928 389.479 389.355C406.875 369.485 413.26 352.801 408.447 339.776C405.972 333.087 401.064 329.697 393.869 329.697ZM365.078 402.592C354.922 402.592 347.505 396.449 344.202 385.303C340.635 364.519 355.522 345.523 371.86 335.897C375.503 333.741 384.96 328.739 393.869 328.739C401.506 328.739 406.708 332.341 409.331 339.444C414.284 352.82 407.834 369.826 390.189 389.982C383.381 397.759 373.761 402.592 365.078 402.592Z" fill="white" fill-opacity="0.3"/>
<path fill-rule="evenodd" clip-rule="evenodd" d="M308.028 566C316.858 553.466 326.65 541.622 336.192 530.102L337.284 528.784C338.061 527.85 338.85 526.889 339.661 525.891C348.259 515.372 358.95 502.268 372.902 501.491C388.957 500.602 402.954 516.461 411.302 525.936C415.642 530.856 419.994 535.896 424.203 540.767C431.413 549.113 438.817 557.68 446.445 566H447.741C439.92 557.489 432.319 548.704 424.927 540.144C420.715 535.273 416.355 530.233 412.022 525.313C403.553 515.702 389.366 499.603 372.845 500.545C358.48 501.345 347.634 514.618 338.922 525.283C338.118 526.285 337.322 527.246 336.553 528.18L335.461 529.501C325.759 541.198 315.812 553.23 306.861 566H308.028Z" fill="white" fill-opacity="0.3"/>
<path fill-rule="evenodd" clip-rule="evenodd" d="M44.2557 566C67.1754 542.965 97.1273 525.416 129.121 516.391C144.669 512.005 165.8 508.661 178.132 517.603C184.488 522.227 187.946 529.746 188.406 539.968C188.802 548.692 188.055 557.389 186.745 566H187.704C189.006 557.389 189.75 548.673 189.354 539.923C188.886 529.396 185.292 521.628 178.683 516.831C166.049 507.656 144.613 511.029 128.865 515.468C96.4064 524.625 66.0242 542.513 42.9119 566H44.2557Z" fill="white" fill-opacity="0.3"/>
<path fill-rule="evenodd" clip-rule="evenodd" d="M331.544 566C342.382 552.499 356.61 542.104 368.67 539.394C388.279 534.993 405.452 550.726 418.167 566H419.403C406.488 550.345 388.854 533.897 368.458 538.48C356.027 541.264 341.365 552.055 330.341 566H331.544Z" fill="white" fill-opacity="0.3"/>
<path fill-rule="evenodd" clip-rule="evenodd" d="M69.2421 566C81.7762 558.208 95.0612 552.637 108.286 550.076C132.986 545.298 148.774 550.661 155.229 566H156.264C149.718 549.887 133.525 544.2 108.107 549.113C94.4051 551.755 80.4716 557.574 67.2017 566H69.2421Z" fill="white" fill-opacity="0.3"/>
</svg>
