<svg width="1920" height="1080" viewBox="0 0 1920 1080" fill="none" xmlns="http://www.w3.org/2000/svg">
<g clip-path="url(#clip0_2001_450)">
<rect width="1920" height="1080" fill="black"/>
<g opacity="0.2" filter="url(#filter0_f_2001_450)">
<path d="M-1916.02 2470L-2187 2227.97L-899.389 1076.17L-226.756 1676.96L1656.62 -3.52941L1927.59 238.503L-226.756 2162.74L-899.389 1561.95L-1916.02 2470Z" fill="#888BFE"/>
<path d="M1983 1147.2H1598.93V289.914H638.771V-53H1983V1147.2Z" fill="#888BFE"/>
</g>
<g opacity="0.2" filter="url(#filter1_f_2001_450)">
<path d="M-109.57 1801L-237 1687.23L368.517 1145.8L684.832 1428.21L1570.51 638.255L1697.94 752.028L684.832 1656.56L368.517 1374.15L-109.57 1801Z" fill="#FE88DD"/>
<path d="M1724 1179.18H1543.39V776.195H1091.86V615H1724V1179.18Z" fill="#FE88DD"/>
</g>
</g>
<defs>
<filter id="filter0_f_2001_450" x="-2487" y="-353" width="4770" height="3123" filterUnits="userSpaceOnUse" color-interpolation-filters="sRGB">
<feFlood flood-opacity="0" result="BackgroundImageFix"/>
<feBlend mode="normal" in="SourceGraphic" in2="BackgroundImageFix" result="shape"/>
<feGaussianBlur stdDeviation="150" result="effect1_foregroundBlur_2001_450"/>
</filter>
<filter id="filter1_f_2001_450" x="-537" y="315" width="2561" height="1786" filterUnits="userSpaceOnUse" color-interpolation-filters="sRGB">
<feFlood flood-opacity="0" result="BackgroundImageFix"/>
<feBlend mode="normal" in="SourceGraphic" in2="BackgroundImageFix" result="shape"/>
<feGaussianBlur stdDeviation="150" result="effect1_foregroundBlur_2001_450"/>
</filter>
<clipPath id="clip0_2001_450">
<rect width="1920" height="1080" fill="white"/>
</clipPath>
</defs>
</svg>
