<svg width="500" height="525" viewBox="0 0 500 525" fill="none" xmlns="http://www.w3.org/2000/svg">
<path fill-rule="evenodd" clip-rule="evenodd" d="M-5.33565 -19.3234C13.9745 -9.40635 32.2055 -0.0379124 53.5564 3.67014C76.047 7.57215 98.6209 4.19124 120.445 0.915609C126.25 0.0451012 132.251 -0.852953 138.157 -1.59932C167.403 -5.3119 189.2 -2.96225 208.806 6.00131C228.037 14.7939 244.935 29.6952 256.377 47.9627C265.6 62.693 270.466 79.7126 275.172 96.1745C277.592 104.651 280.098 113.411 283.165 121.753C285.357 127.718 287.909 133.844 290.367 139.767C298.583 159.569 307.091 180.039 305.962 201.397C304.205 234.428 283.759 259.291 263.976 283.341C252.265 297.582 240.145 312.313 231.842 328.701C216.295 359.423 211.267 386.463 216.897 409.069C218.219 414.374 219.798 419.562 221.323 424.573C227.442 444.7 233.231 463.714 220.093 484.517C214.974 492.625 209.241 500.289 203.706 507.696C197.205 516.39 190.56 525.291 184.846 535H185.956C191.578 525.521 198.094 516.798 204.463 508.274C210.021 500.851 215.758 493.165 220.899 485.034C234.265 463.854 228.423 444.636 222.232 424.298C220.714 419.295 219.143 414.125 217.821 408.839C212.248 386.463 217.257 359.646 232.694 329.134C240.948 312.837 253.03 298.154 264.714 283.948C284.589 259.78 305.137 234.792 306.905 201.448C308.049 179.873 299.51 159.298 291.245 139.399C288.788 133.485 286.243 127.368 284.062 121.421C281.003 113.112 278.508 104.369 276.085 95.9123C271.359 79.3858 266.483 62.2964 257.18 47.4559C245.635 29.0318 228.601 14.0019 209.203 5.13533C189.424 -3.91124 167.479 -6.27901 138.036 -2.54831C132.122 -1.80195 126.113 -0.899364 120.305 -0.0284786C98.5452 3.23281 76.0546 6.60429 53.723 2.72606C32.5084 -0.958605 14.3342 -10.2912 -4.90022 -20.1754C-7.70208 -21.6131 -10.5039 -23.0545 -13.3247 -24.4827C-17.713 -26.6976 -22.1771 -28.9039 -26.7131 -31H-29C-23.8279 -28.656 -18.7391 -26.1494 -13.7488 -23.6262C-10.928 -22.2025 -8.12615 -20.7611 -5.33565 -19.3234Z" fill="white"/>
<path fill-rule="evenodd" clip-rule="evenodd" d="M225.864 519.854C221.591 524.782 217.247 529.804 213.088 535H214.321C218.321 530.034 222.483 525.216 226.585 520.48C234.413 511.454 242.503 502.123 249.208 491.969C263.642 470.136 265.023 448.349 253.693 421.328C244.495 399.405 234.99 376.743 241.463 350.59C248.339 322.824 266.484 300.972 284.033 279.84C298.547 262.346 313.554 244.262 322.243 222.843C332.056 198.666 330.963 170.965 319.01 140.523C318.233 138.533 317.436 136.547 316.65 134.558C312.655 124.521 308.526 114.139 305.68 103.535C303.282 94.618 302.14 85.3319 301.047 76.3506C300.66 73.2044 300.262 69.948 299.818 66.7463C297.917 53.1952 293.918 41.0348 286.83 27.3131C281.688 17.3458 274.209 8.84263 266.977 0.621666C263.957 -2.81056 260.834 -6.35749 257.935 -9.95423C253.154 -15.8867 248.289 -23.013 246.54 -31H245.55C247.299 -22.7602 252.285 -15.4452 257.195 -9.35616C260.101 -5.74055 263.232 -2.1838 266.252 1.25182C273.45 9.43203 280.891 17.8892 285.983 27.7553C293.007 41.3763 296.98 53.4442 298.862 66.8803C299.317 70.0725 299.716 73.3244 300.095 76.4657C301.207 85.4798 302.345 94.8018 304.755 103.785C307.616 114.443 311.755 124.848 315.759 134.912C316.548 136.897 317.345 138.883 318.122 140.873C329.98 171.08 331.073 198.537 321.363 222.484C312.731 243.765 297.769 261.793 283.289 279.222C265.679 300.447 247.466 322.381 240.537 350.359C233.977 376.818 243.558 399.635 252.812 421.698C264.01 448.387 262.651 469.895 248.422 491.444C241.744 501.542 233.673 510.847 225.864 519.854Z" fill="white"/>
<path fill-rule="evenodd" clip-rule="evenodd" d="M105.916 69.2065C98.5254 69.2065 90.7116 69.5888 82.0402 70.3714C58.7123 72.481 42.552 79.5191 32.6337 91.8956C20.4597 107.096 20.8375 127.801 22.5227 144.138C22.9761 148.441 23.4749 152.771 23.9623 156.962C26.0404 174.742 27.9938 191.53 26.2142 209.371C25.3301 218.283 23.6147 227.256 21.9522 235.934C18.9181 251.77 15.7896 268.149 17.6259 284.62C27.378 326.094 80.4382 329.328 96.4699 329.328C98.3516 329.328 100.241 329.291 102.096 329.217C152.795 327.181 191.641 288.886 216.453 260.259C237.503 235.966 245.199 213.516 240.677 189.605C236.158 165.659 221.611 141.527 207.978 121.08C193.375 99.1781 173.761 83.5214 151.272 75.8118C138.304 71.3668 123.47 69.2065 105.916 69.2065ZM96.4698 330.285C78.3713 330.285 61.0926 326.867 47.838 320.668C30.9107 312.754 20.4331 300.686 16.6963 284.786C14.8222 268.112 17.9772 251.664 21.0226 235.754C22.6737 227.095 24.3891 218.145 25.2733 209.274C27.034 191.54 25.0881 174.796 23.0214 157.072C22.5339 152.881 22.0276 148.547 21.5818 144.24C19.8777 127.718 19.4999 106.769 31.8968 91.2975C41.9776 78.7089 58.3533 71.5505 81.9494 69.4178C90.6587 68.6303 98.4875 68.2481 105.916 68.2481C123.58 68.2481 138.516 70.4272 151.578 74.9043C174.271 82.6841 194.047 98.4687 208.772 120.55C222.45 141.075 237.053 165.313 241.617 189.426C246.193 213.65 238.428 236.358 217.164 260.885C192.241 289.65 153.199 328.12 102.134 330.175C100.26 330.248 98.3628 330.285 96.4698 330.285Z" fill="white"/>
<path fill-rule="evenodd" clip-rule="evenodd" d="M101.525 89.358C85.8903 89.358 72.7716 92.7155 62.5208 99.3441C49.047 108.068 42.8466 123.471 44.0935 145.124C44.3882 147.879 44.6829 150.647 44.9852 153.415C47.8266 179.841 50.77 207.173 48.8241 234.516C46.8782 261.83 52.9388 280.199 67.3572 290.673C78.666 298.9 91.4974 303.063 105.5 303.063C147.123 303.063 184.858 267.605 195.441 256.731C216.574 235.012 224.951 215.138 221.803 194.194C218.648 173.18 205.779 148.961 186.502 127.745C168.947 108.418 147.074 95.8614 123.259 91.4258C115.868 90.0534 108.553 89.358 101.525 89.358ZM105.512 304.021C105.5 304.021 105.512 304.021 105.5 304.021C91.2934 304.021 78.2768 299.793 66.8018 291.456C52.0887 280.76 45.8996 262.116 47.872 234.446C49.8103 207.187 47.0067 181.116 44.0369 153.517C43.7422 150.748 43.4474 147.98 43.1489 145.202C41.8794 123.158 48.2234 107.459 62.0145 98.5374C72.4127 91.8125 85.7052 88.3996 101.525 88.3996C108.617 88.3996 115.989 89.104 123.425 90.4862C147.452 94.9588 169.51 107.621 187.201 127.101C206.61 148.449 219.563 172.854 222.744 194.05C225.937 215.317 217.477 235.445 196.122 257.403C185.478 268.333 147.49 304.021 105.512 304.021Z" fill="white"/>
<path fill-rule="evenodd" clip-rule="evenodd" d="M78.7493 164.216C80.2267 174.391 81.1675 184.787 82.0705 194.842C83.0642 205.975 84.0995 217.486 85.8716 228.652C87.621 239.674 93.4624 258.821 112.91 263.229C116.125 263.958 119.522 264.335 122.991 264.335C149.364 264.335 180.045 242.589 189.989 216.851C202.957 183.268 169.216 150.347 147.233 136.188C138.006 130.247 123.829 123.163 108.663 123.163C103.01 123.163 97.6225 124.18 92.669 126.179C78.602 131.863 78.0956 148.777 78.7493 164.216ZM123.002 268.158C122.991 268.158 122.991 268.158 122.991 268.158C119.235 268.158 115.566 267.753 112.079 266.96C90.4358 262.06 84.0163 241.231 82.1158 229.251C80.3248 217.956 79.282 206.382 78.2769 195.188C77.3739 185.152 76.4444 174.774 74.9746 164.673L74.9557 164.479C74.404 151.513 73.4708 129.809 91.2482 122.632C96.6626 120.45 102.519 119.339 108.663 119.339C124.744 119.339 139.631 126.751 149.281 132.968C172.242 147.754 207.396 182.351 193.53 218.237C183.079 245.299 150.773 268.158 123.002 268.158Z" fill="white"/>
<path fill-rule="evenodd" clip-rule="evenodd" d="M237.776 535C239.732 532.456 241.703 529.98 243.637 527.584C245.63 525.13 247.658 522.681 249.693 520.213C261.568 505.863 273.855 491.019 280.014 473.163C288.46 448.668 278.586 427.921 268.131 405.963L266.647 402.838C255.614 379.551 253.428 358.619 259.949 338.843C266.76 318.185 280.935 300.604 293.705 285.75C296.73 282.23 299.845 278.691 302.865 275.273C313.691 263.018 324.871 250.348 333.613 236.033C335.244 233.361 336.894 230.556 338.487 227.838C348.289 211.154 358.42 193.901 375.978 185.815C382.692 182.723 390.009 180.909 397.1 179.158C402.013 177.936 407.091 176.679 411.951 174.997C420.349 172.1 428.554 168.396 436.491 164.816C441.588 162.511 446.859 160.13 452.127 157.992C479.54 146.843 504.993 145.673 527.788 154.509C532.104 156.182 536.843 158.383 541 161.143V160.015C537.443 157.707 533.146 155.559 528.132 153.615C505.103 144.687 479.411 145.862 451.775 157.103C446.482 159.249 441.199 161.637 436.094 163.94C428.184 167.515 419.998 171.205 411.645 174.095C406.823 175.762 401.764 177.015 396.866 178.227C389.745 179.992 382.378 181.816 375.585 184.944C357.744 193.154 347.542 210.537 337.668 227.349C336.074 230.063 334.432 232.868 332.801 235.531C324.105 249.777 312.951 262.41 302.159 274.638C299.135 278.056 296.008 281.603 292.988 285.124C280.165 300.051 265.911 317.715 259.042 338.54C252.442 358.57 254.647 379.736 265.79 403.242L267.274 406.378C277.635 428.148 287.437 448.725 279.111 472.85C273.009 490.551 260.783 505.32 248.968 519.605C246.929 522.062 244.89 524.523 242.9 526.984C240.809 529.561 238.679 532.245 236.568 535H237.776Z" fill="white"/>
<path fill-rule="evenodd" clip-rule="evenodd" d="M266.448 520.601C262.668 525.315 258.857 530.094 255.19 535H259.976C263.077 530.931 266.263 526.933 269.429 522.984C273.668 517.671 278.067 512.183 282.113 506.651C296.636 486.799 314.708 462.104 306.855 435.531C303.579 424.454 297.348 414.641 291.312 405.149C283.322 392.553 275.769 380.665 274.252 365.859C269.835 322.881 306.172 289.191 335.37 262.111L337.721 259.93C355.66 243.278 372.306 228.882 394.44 221.291C404.181 217.953 414.605 216.277 424.676 214.656C426.705 214.33 428.73 214.003 430.751 213.667C431.479 213.548 432.305 213.395 433.212 213.235C440.462 211.927 453.957 209.492 460.134 213.819C461.848 215.025 462.864 216.673 463.243 218.86C464.381 225.498 461.56 233.813 459.057 241.146C458.458 242.9 457.893 244.558 457.4 246.132C454.15 256.606 450.226 267.167 445.403 278.427C437.386 297.155 427.353 316.757 413.82 340.108C410.54 345.743 406.79 351.607 402.808 357.811C384.001 387.186 362.679 420.479 376.891 453.958C385.157 473.448 399.794 491.973 411.613 505.93C421.009 517.026 430.796 526.752 440.841 535H446.961C435.794 526.299 424.926 515.747 414.521 503.456C402.877 489.71 388.471 471.479 380.398 452.457C366.975 420.838 387.72 388.453 406.031 359.874C410.021 353.632 413.797 347.742 417.111 342.022C430.732 318.534 440.83 298.812 448.914 279.938C453.783 268.557 457.753 257.867 461.048 247.269C461.522 245.741 462.075 244.112 462.671 242.381C465.317 234.613 468.317 225.811 467.001 218.211C466.448 215.011 464.874 212.48 462.318 210.688C454.837 205.45 440.879 207.968 432.537 209.468C431.646 209.629 430.834 209.777 430.121 209.897C428.112 210.233 426.094 210.56 424.073 210.881C413.835 212.53 403.256 214.228 393.211 217.673C370.361 225.507 353.385 240.175 335.127 257.126L332.776 259.308C302.957 286.963 265.846 321.38 270.456 366.255C272.064 381.955 280.213 394.789 288.1 407.193C293.981 416.463 300.071 426.057 303.192 436.617C310.514 461.368 293.064 485.226 279.026 504.396C275.029 509.856 270.669 515.314 266.448 520.601Z" fill="white"/>
<path fill-rule="evenodd" clip-rule="evenodd" d="M388.515 256.367C374.187 256.367 360.158 264.648 347.141 273.602C307.49 300.872 288.156 329.217 289.671 357.887C291.874 375.701 303.164 394.145 318.433 404.82C323.617 408.442 329.806 412.155 336.456 412.155C338.009 412.155 339.546 411.944 341.031 411.548C349.438 409.261 355.506 401.922 360.875 395.443C385.579 365.615 411.415 329.936 416.15 291.06C417.68 278.495 413.845 262.216 397.987 257.675C394.953 256.804 391.768 256.367 388.515 256.367ZM336.455 413.103C329.549 413.103 323.193 409.318 317.888 405.605C302.408 394.779 290.96 376.079 288.719 357.967C287.189 328.913 306.67 300.282 346.604 272.811C359.749 263.773 373.918 255.408 388.514 255.408C391.851 255.408 395.127 255.86 398.244 256.754C414.684 261.461 418.666 278.237 417.09 291.17C412.33 330.304 386.398 366.113 361.657 395.987C356.152 402.639 349.971 410.11 341.284 412.469C339.712 412.891 338.091 413.103 336.455 413.103Z" fill="white"/>
<path fill-rule="evenodd" clip-rule="evenodd" d="M364.869 298.697C356.198 298.697 346.918 303.607 343.34 305.726C327.289 315.178 312.648 333.805 316.128 354.08C319.29 364.74 326.375 370.638 336.078 370.638C344.492 370.638 353.836 365.928 360.479 358.355C377.875 338.485 384.26 321.801 379.447 308.776C376.972 302.087 372.064 298.697 364.869 298.697ZM336.078 371.592C325.922 371.592 318.505 365.449 315.202 354.303C311.635 333.519 326.522 314.523 342.86 304.897C346.503 302.741 355.96 297.739 364.869 297.739C372.506 297.739 377.708 301.341 380.331 308.444C385.284 321.82 378.834 338.826 361.189 358.982C354.381 366.759 344.761 371.592 336.078 371.592Z" fill="white"/>
<path fill-rule="evenodd" clip-rule="evenodd" d="M279.028 535C287.858 522.466 297.65 510.622 307.192 499.102L308.284 497.784C309.061 496.85 309.85 495.889 310.661 494.891C319.259 484.372 329.95 471.268 343.902 470.491C359.957 469.602 373.954 485.461 382.302 494.936C386.642 499.856 390.995 504.896 395.203 509.767C402.413 518.113 409.817 526.68 417.445 535H418.741C410.92 526.489 403.319 517.704 395.927 509.144C391.715 504.273 387.355 499.233 383.022 494.313C374.553 484.703 360.366 468.603 343.845 469.545C329.48 470.345 318.634 483.618 309.922 494.283C309.118 495.285 308.322 496.246 307.553 497.18L306.461 498.501C296.759 510.198 286.812 522.23 277.861 535H279.028Z" fill="white"/>
<path fill-rule="evenodd" clip-rule="evenodd" d="M15.2557 535C38.1754 511.965 68.1273 494.416 100.121 485.391C115.669 481.005 136.8 477.661 149.132 486.603C155.488 491.227 158.946 498.746 159.406 508.968C159.802 517.692 159.055 526.389 157.745 535H158.704C160.006 526.389 160.75 517.673 160.354 508.923C159.886 498.396 156.292 490.628 149.683 485.831C137.049 476.656 115.613 480.029 99.8647 484.468C67.4064 493.625 37.0242 511.513 13.9119 535H15.2557Z" fill="white"/>
<path fill-rule="evenodd" clip-rule="evenodd" d="M302.544 535C313.382 521.499 327.61 511.104 339.67 508.394C359.279 503.993 376.452 519.726 389.167 535H390.403C377.488 519.345 359.854 502.897 339.458 507.48C327.027 510.264 312.365 521.055 301.341 535H302.544Z" fill="white"/>
<path fill-rule="evenodd" clip-rule="evenodd" d="M40.2421 535C52.7762 527.208 66.0612 521.637 79.2856 519.076C103.986 514.298 119.774 519.661 126.229 535H127.264C120.718 518.887 104.525 513.2 79.1074 518.113C65.4051 520.755 51.4716 526.574 38.2017 535H40.2421Z" fill="white"/>
</svg>
