<svg width="12" height="16" viewBox="0 0 12 16" fill="none" xmlns="http://www.w3.org/2000/svg">
<path d="M10.5 0.6875H3.75C3.45163 0.6875 3.16548 0.806026 2.95451 1.017C2.74353 1.22798 2.625 1.51413 2.625 1.8125V2.9375H1.5C1.20163 2.9375 0.915483 3.05603 0.704505 3.267C0.493526 3.47798 0.375 3.76413 0.375 4.0625V14.75C0.374997 14.8534 0.403471 14.9547 0.457294 15.0429C0.511117 15.1312 0.588209 15.2029 0.680108 15.2502C0.772007 15.2975 0.875159 15.3185 0.978241 15.311C1.08132 15.3036 1.18035 15.2678 1.26445 15.2077L4.875 12.6287L8.48625 15.2077C8.57035 15.2676 8.66931 15.3032 8.77228 15.3106C8.87525 15.318 8.97827 15.2969 9.07005 15.2496C9.16183 15.2023 9.23884 15.1307 9.29262 15.0426C9.34641 14.9545 9.37491 14.8532 9.375 14.75V11.986L10.7355 12.9577C10.8196 13.0178 10.9187 13.0536 11.0218 13.061C11.1248 13.0685 11.228 13.0475 11.3199 13.0002C11.4118 12.9529 11.4889 12.8812 11.5427 12.7929C11.5965 12.7047 11.625 12.6034 11.625 12.5V1.8125C11.625 1.51413 11.5065 1.22798 11.2955 1.017C11.0845 0.806026 10.7984 0.6875 10.5 0.6875ZM8.25 13.6573L5.20125 11.4777C5.10585 11.4095 4.99154 11.3729 4.8743 11.3729C4.75706 11.3729 4.64275 11.4095 4.54734 11.4777L1.5 13.6566V4.0625H8.25V13.6573ZM10.5 11.4073L9.375 10.6016V4.0625C9.375 3.76413 9.25647 3.47798 9.04549 3.267C8.83452 3.05603 8.54837 2.9375 8.25 2.9375H3.75V1.8125H10.5V11.4073Z" fill="black"/>
<path d="M5.55 7.8875C5.55 8.06652 5.47888 8.23821 5.3523 8.3648C5.22571 8.49138 5.05402 8.5625 4.875 8.5625C4.69598 8.5625 4.52429 8.49138 4.3977 8.3648C4.27112 8.23821 4.2 8.06652 4.2 7.8875C4.2 7.70848 4.27112 7.53679 4.3977 7.4102C4.52429 7.28362 4.69598 7.2125 4.875 7.2125C5.05402 7.2125 5.22571 7.28362 5.3523 7.4102C5.47888 7.53679 5.55 7.70848 5.55 7.8875Z" stroke="black" stroke-width="0.75" stroke-linecap="round" stroke-linejoin="round"/>
<path d="M2.625 7.8875C2.985 6.96567 3.8256 6.3125 4.875 6.3125C5.9244 6.3125 6.765 6.96567 7.125 7.8875C6.765 8.80932 5.9244 9.4625 4.875 9.4625C3.8256 9.4625 2.985 8.80932 2.625 7.8875Z" stroke="black" stroke-width="0.75" stroke-linecap="round" stroke-linejoin="round"/>
</svg>
