<svg width="50" height="50" viewBox="0 0 50 50" fill="none" xmlns="http://www.w3.org/2000/svg">
<g clip-path="url(#clip0_2038_451)">
<path d="M17.5625 22.625C17.5625 22.1774 17.7403 21.7482 18.0568 21.4318C18.3732 21.1153 18.8024 20.9375 19.25 20.9375H36.125C36.5726 20.9375 37.0018 21.1153 37.3182 21.4318C37.6347 21.7482 37.8125 22.1774 37.8125 22.625C37.8125 23.0726 37.6347 23.5018 37.3182 23.8182C37.0018 24.1347 36.5726 24.3125 36.125 24.3125H19.25C18.8024 24.3125 18.3732 24.1347 18.0568 23.8182C17.7403 23.5018 17.5625 23.0726 17.5625 22.625ZM19.25 31.0625H36.125C36.5726 31.0625 37.0018 30.8847 37.3182 30.5682C37.6347 30.2518 37.8125 29.8226 37.8125 29.375C37.8125 28.9274 37.6347 28.4982 37.3182 28.1818C37.0018 27.8653 36.5726 27.6875 36.125 27.6875H19.25C18.8024 27.6875 18.3732 27.8653 18.0568 28.1818C17.7403 28.4982 17.5625 28.9274 17.5625 29.375C17.5625 29.8226 17.7403 30.2518 18.0568 30.5682C18.3732 30.8847 18.8024 31.0625 19.25 31.0625ZM47.9375 12.5V37.8125C47.9375 39.1552 47.4041 40.4428 46.4547 41.3922C45.5053 42.3416 44.2177 42.875 42.875 42.875H5.75C4.41135 42.875 3.12719 42.3448 2.17845 41.4004C1.22971 40.456 0.693635 39.1743 0.6875 37.8357V17.5625C0.6875 17.1149 0.86529 16.6857 1.18176 16.3693C1.49822 16.0528 1.92745 15.875 2.375 15.875C2.82255 15.875 3.25178 16.0528 3.56824 16.3693C3.88471 16.6857 4.0625 17.1149 4.0625 17.5625V37.8125C4.0625 38.2601 4.24029 38.6893 4.55676 39.0057C4.87322 39.3222 5.30245 39.5 5.75 39.5C6.19755 39.5 6.62677 39.3222 6.94324 39.0057C7.25971 38.6893 7.4375 38.2601 7.4375 37.8125V12.5C7.4375 11.6049 7.79308 10.7464 8.42601 10.1135C9.05895 9.48058 9.91739 9.125 10.8125 9.125H44.5625C45.4576 9.125 46.316 9.48058 46.949 10.1135C47.5819 10.7464 47.9375 11.6049 47.9375 12.5ZM44.5625 12.5H10.8125V37.8125C10.8133 38.3874 10.7156 38.9582 10.5235 39.5H42.875C43.3226 39.5 43.7518 39.3222 44.0682 39.0057C44.3847 38.6893 44.5625 38.2601 44.5625 37.8125V12.5Z" fill="white"/>
</g>
<defs>
<clipPath id="clip0_2038_451">
<rect width="50" height="50" fill="white"/>
</clipPath>
</defs>
</svg>
