<svg width="14" height="13" viewBox="0 0 14 13" fill="none" xmlns="http://www.w3.org/2000/svg">
<path d="M11.5481 2.36813C10.3379 1.16974 8.70314 0.498257 7 0.500003H6.93313C5.22083 0.517621 3.58466 1.21021 2.3801 2.42729C1.17554 3.64437 0.499909 5.28762 0.5 7C0.5 9.6875 2.16125 11.9413 4.835 12.8856C5.13657 12.9919 5.45924 13.0244 5.77594 12.9803C6.09264 12.9362 6.39415 12.8168 6.65518 12.6321C6.91622 12.4474 7.12916 12.2028 7.27615 11.9188C7.42315 11.6348 7.49991 11.3198 7.5 11C7.5 10.7348 7.60536 10.4804 7.79289 10.2929C7.98043 10.1054 8.23478 10 8.5 10H11.3881C11.8418 10.0022 12.2826 9.84917 12.6373 9.56631C12.992 9.28345 13.2393 8.88779 13.3381 8.445C13.4499 7.95294 13.5042 7.44958 13.5 6.945C13.4936 6.09092 13.3178 5.24659 12.9828 4.46094C12.6477 3.67529 12.1601 2.96395 11.5481 2.36813ZM12.3606 8.225C12.311 8.44559 12.1875 8.64264 12.0107 8.78355C11.8339 8.92447 11.6142 9.00083 11.3881 9H8.5C7.96957 9 7.46086 9.21072 7.08579 9.58579C6.71071 9.96086 6.5 10.4696 6.5 11C6.49977 11.1597 6.46128 11.3171 6.38775 11.4589C6.31423 11.6007 6.2078 11.7228 6.07739 11.815C5.94698 11.9072 5.79637 11.9669 5.63818 11.989C5.47998 12.011 5.3188 11.9949 5.16813 11.9419C2.90563 11.1438 1.5 9.25 1.5 7C1.49992 5.55111 2.07157 4.16072 3.09075 3.13089C4.10993 2.10106 5.49431 1.51499 6.94312 1.5H6.99937C8.44824 1.50563 9.83685 2.08049 10.8657 3.10061C11.8946 4.12072 12.4813 5.50436 12.4994 6.95313C12.5031 7.38092 12.4574 7.80771 12.3631 8.225H12.3606ZM7.75 3.75C7.75 3.89834 7.70601 4.04334 7.6236 4.16668C7.54119 4.29002 7.42406 4.38615 7.28701 4.44291C7.14997 4.49968 6.99917 4.51453 6.85368 4.48559C6.7082 4.45665 6.57456 4.38522 6.46967 4.28033C6.36478 4.17544 6.29335 4.04181 6.26441 3.89632C6.23547 3.75084 6.25032 3.60004 6.30709 3.46299C6.36386 3.32595 6.45999 3.20881 6.58332 3.1264C6.70666 3.04399 6.85166 3 7 3C7.19891 3 7.38968 3.07902 7.53033 3.21967C7.67098 3.36033 7.75 3.55109 7.75 3.75ZM5 5.25C5 5.39834 4.95601 5.54334 4.8736 5.66668C4.79119 5.79002 4.67406 5.88615 4.53701 5.94291C4.39997 5.99968 4.24917 6.01453 4.10368 5.98559C3.9582 5.95665 3.82456 5.88522 3.71967 5.78033C3.61478 5.67544 3.54335 5.54181 3.51441 5.39632C3.48547 5.25084 3.50032 5.10004 3.55709 4.96299C3.61386 4.82595 3.70999 4.70881 3.83332 4.6264C3.95666 4.54399 4.10166 4.5 4.25 4.5C4.44891 4.5 4.63968 4.57902 4.78033 4.71967C4.92098 4.86033 5 5.05109 5 5.25ZM5 8.75C5 8.89834 4.95601 9.04334 4.8736 9.16668C4.79119 9.29002 4.67406 9.38615 4.53701 9.44291C4.39997 9.49968 4.24917 9.51453 4.10368 9.48559C3.9582 9.45665 3.82456 9.38522 3.71967 9.28033C3.61478 9.17544 3.54335 9.04181 3.51441 8.89632C3.48547 8.75084 3.50032 8.60004 3.55709 8.46299C3.61386 8.32595 3.70999 8.20881 3.83332 8.1264C3.95666 8.04399 4.10166 8 4.25 8C4.44891 8 4.63968 8.07902 4.78033 8.21967C4.92098 8.36033 5 8.55109 5 8.75ZM10.5 5.25C10.5 5.39834 10.456 5.54334 10.3736 5.66668C10.2912 5.79002 10.1741 5.88615 10.037 5.94291C9.89997 5.99968 9.74917 6.01453 9.60368 5.98559C9.4582 5.95665 9.32456 5.88522 9.21967 5.78033C9.11478 5.67544 9.04335 5.54181 9.01441 5.39632C8.98547 5.25084 9.00033 5.10004 9.05709 4.96299C9.11386 4.82595 9.20999 4.70881 9.33332 4.6264C9.45666 4.54399 9.60166 4.5 9.75 4.5C9.94891 4.5 10.1397 4.57902 10.2803 4.71967C10.421 4.86033 10.5 5.05109 10.5 5.25Z" fill="url(#paint0_linear_41_67)"/>
<defs>
<linearGradient id="paint0_linear_41_67" x1="7.00011" y1="0.5" x2="7.00011" y2="12.9994" gradientUnits="userSpaceOnUse">
<stop stop-color="#625FFF"/>
<stop offset="0.5" stop-color="#BE6BFF"/>
<stop offset="0.75" stop-color="#FF99D6"/>
<stop offset="1" stop-color="#3ED179"/>
</linearGradient>
</defs>
</svg>
