<svg width="50" height="50" viewBox="0 0 50 50" fill="none" xmlns="http://www.w3.org/2000/svg">
<path d="M40.1583 39.4623C40.1583 38.7382 40.6796 38.1562 41.3834 37.9699C43.4244 37.4291 44.9348 35.5716 44.9348 33.3705V15.3944C44.9348 12.7671 42.7972 10.6377 40.1598 10.6377H9.84019C7.20277 10.6377 5.06524 12.7671 5.06524 15.3944V33.372C5.06524 35.5732 6.57409 37.4306 8.61655 37.9714C9.31884 38.1578 9.84173 38.7382 9.84173 39.4623C9.84173 40.4597 8.89563 41.1914 7.925 40.9486C4.52395 40.0947 2 37.0213 2 33.372V15.3944C2 11.0791 5.51145 7.58261 9.84173 7.58261H40.1583C44.4901 7.58261 48 11.0807 48 15.3944V33.372C48 37.0213 45.476 40.0947 42.075 40.9486C41.1044 41.193 40.1583 40.4597 40.1583 39.4623Z" fill="white"/>
<path d="M17.3308 4.52754C17.3308 3.6839 16.6443 3 15.7974 3C14.9505 3 14.264 3.6839 14.264 4.52754V13.6927C14.264 14.5364 14.9505 15.2203 15.7974 15.2203C16.6443 15.2203 17.3308 14.5364 17.3308 13.6927V4.52754Z" fill="white"/>
<path d="M35.7345 4.52754C35.7345 3.6839 35.0479 3 34.2011 3C33.3542 3 32.6677 3.6839 32.6677 4.52754V13.6927C32.6677 14.5364 33.3542 15.2203 34.2011 15.2203C35.0479 15.2203 35.7345 14.5364 35.7345 13.6927V4.52754Z" fill="white"/>
<path d="M19.0558 40.4827C18.5375 41.2418 17.4504 41.3961 16.768 40.7775C14.2379 38.4846 12.769 35.2234 12.769 31.765C12.769 25.0469 18.2554 19.5814 24.9992 19.5814V22.6365C19.9467 22.6365 15.8357 26.7318 15.8357 31.765C15.8357 34.3496 16.9321 36.7876 18.8197 38.506C19.3809 39.0178 19.4852 39.8564 19.0558 40.4827Z" fill="white"/>
<path d="M24.9992 43.9471V40.892C30.0517 40.892 34.1627 36.7967 34.1627 31.7635C34.1627 29.1163 33.0234 26.6386 31.0622 24.9171C30.4918 24.416 30.3768 23.579 30.7939 22.9466C31.2999 22.1782 32.384 22.0086 33.0786 22.6151C35.7038 24.9125 37.2295 28.2242 37.2295 31.7635C37.2295 38.4816 31.7431 43.9471 24.9992 43.9471Z" fill="white"/>
<path d="M23.2036 24.6849C22.6056 24.0892 22.6041 23.1222 23.2036 22.525L24.6266 21.1074L23.2036 19.6899C22.6056 19.0926 22.6056 18.1257 23.2036 17.5299C23.8032 16.9326 24.7738 16.9342 25.3718 17.5299L28.1549 20.3024C28.6012 20.7469 28.6012 21.4679 28.1549 21.9124L25.3718 24.6849C24.7738 25.2822 23.8017 25.2822 23.2036 24.6849Z" fill="white"/>
<path d="M26.5602 38.8421C27.1582 39.4378 27.1598 40.4048 26.5602 41.002L25.1372 42.4196L26.5602 43.8371C27.1582 44.4344 27.1582 45.4013 26.5602 45.9971C25.9607 46.5943 24.99 46.5928 24.392 45.9971L21.6089 43.2246C21.1627 42.7801 21.1627 42.0591 21.6089 41.6146L24.392 38.8421C24.99 38.2448 25.9622 38.2448 26.5602 38.8421Z" fill="white"/>
<path d="M40.1583 39.4623C40.1583 38.7382 40.6796 38.1562 41.3834 37.9699C43.4244 37.4291 44.9348 35.5716 44.9348 33.3705V15.3944C44.9348 12.7671 42.7972 10.6377 40.1598 10.6377H9.84019C7.20277 10.6377 5.06524 12.7671 5.06524 15.3944V33.372C5.06524 35.5732 6.57409 37.4306 8.61655 37.9714C9.31884 38.1578 9.84173 38.7382 9.84173 39.4623C9.84173 40.4597 8.89563 41.1914 7.925 40.9486C4.52395 40.0947 2 37.0213 2 33.372V15.3944C2 11.0791 5.51145 7.58261 9.84173 7.58261H40.1583C44.4901 7.58261 48 11.0807 48 15.3944V33.372C48 37.0213 45.476 40.0947 42.075 40.9486C41.1044 41.193 40.1583 40.4597 40.1583 39.4623Z" stroke="white" stroke-width="0.2"/>
<path d="M17.3308 4.52754C17.3308 3.6839 16.6443 3 15.7974 3C14.9505 3 14.264 3.6839 14.264 4.52754V13.6927C14.264 14.5364 14.9505 15.2203 15.7974 15.2203C16.6443 15.2203 17.3308 14.5364 17.3308 13.6927V4.52754Z" stroke="white" stroke-width="0.2"/>
<path d="M35.7345 4.52754C35.7345 3.6839 35.0479 3 34.2011 3C33.3542 3 32.6677 3.6839 32.6677 4.52754V13.6927C32.6677 14.5364 33.3542 15.2203 34.2011 15.2203C35.0479 15.2203 35.7345 14.5364 35.7345 13.6927V4.52754Z" stroke="white" stroke-width="0.2"/>
<path d="M19.0558 40.4827C18.5375 41.2418 17.4504 41.3961 16.768 40.7775C14.2379 38.4846 12.769 35.2234 12.769 31.765C12.769 25.0469 18.2554 19.5814 24.9992 19.5814V22.6365C19.9467 22.6365 15.8357 26.7318 15.8357 31.765C15.8357 34.3496 16.9321 36.7876 18.8197 38.506C19.3809 39.0178 19.4852 39.8564 19.0558 40.4827Z" stroke="white" stroke-width="0.2"/>
<path d="M24.9992 43.9471V40.892C30.0517 40.892 34.1627 36.7967 34.1627 31.7635C34.1627 29.1163 33.0234 26.6386 31.0622 24.9171C30.4918 24.416 30.3768 23.579 30.7939 22.9466C31.2999 22.1782 32.384 22.0086 33.0786 22.6151C35.7038 24.9125 37.2295 28.2242 37.2295 31.7635C37.2295 38.4816 31.7431 43.9471 24.9992 43.9471Z" stroke="white" stroke-width="0.2"/>
<path d="M23.2036 24.6849C22.6056 24.0892 22.6041 23.1222 23.2036 22.525L24.6266 21.1074L23.2036 19.6899C22.6056 19.0926 22.6056 18.1257 23.2036 17.5299C23.8032 16.9326 24.7738 16.9342 25.3718 17.5299L28.1549 20.3024C28.6012 20.7469 28.6012 21.4679 28.1549 21.9124L25.3718 24.6849C24.7738 25.2822 23.8017 25.2822 23.2036 24.6849Z" stroke="white" stroke-width="0.2"/>
<path d="M26.5602 38.8421C27.1582 39.4378 27.1598 40.4048 26.5602 41.002L25.1372 42.4196L26.5602 43.8371C27.1582 44.4344 27.1582 45.4013 26.5602 45.9971C25.9607 46.5943 24.99 46.5928 24.392 45.9971L21.6089 43.2246C21.1627 42.7801 21.1627 42.0591 21.6089 41.6146L24.392 38.8421C24.99 38.2448 25.9622 38.2448 26.5602 38.8421Z" stroke="white" stroke-width="0.2"/>
</svg>
