<svg width="50" height="50" viewBox="0 0 50 50" fill="none" xmlns="http://www.w3.org/2000/svg">
<g clip-path="url(#clip0_2038_468)">
<path d="M36.7115 14.2576H6.59615C5.7087 14.2576 4.85759 14.6048 4.23007 15.2228C3.60254 15.8408 3.25 16.679 3.25 17.553V40.6212C3.25 41.4952 3.60254 42.3334 4.23007 42.9514C4.85759 43.5695 5.7087 43.9167 6.59615 43.9167H36.7115C37.599 43.9167 38.4501 43.5695 39.0776 42.9514C39.7052 42.3334 40.0577 41.4952 40.0577 40.6212V17.553C40.0577 16.679 39.7052 15.8408 39.0776 15.2228C38.4501 14.6048 37.599 14.2576 36.7115 14.2576ZM36.7115 40.6212H6.59615V17.553H36.7115V40.6212ZM46.75 10.9621V35.678C46.75 36.115 46.5737 36.5341 46.26 36.8431C45.9462 37.1522 45.5206 37.3258 45.0769 37.3258C44.6332 37.3258 44.2076 37.1522 43.8939 36.8431C43.5801 36.5341 43.4038 36.115 43.4038 35.678V10.9621H11.6154C11.1717 10.9621 10.7461 10.7885 10.4323 10.4795C10.1186 10.1705 9.94231 9.7514 9.94231 9.31439C9.94231 8.87739 10.1186 8.45828 10.4323 8.14927C10.7461 7.84026 11.1717 7.66666 11.6154 7.66666H43.4038C44.2913 7.66666 45.1424 8.01386 45.7699 8.63188C46.3975 9.2499 46.75 10.0881 46.75 10.9621Z" fill="white"/>
<path d="M10.5 36.6667V22.1667H17.6927V24.6943H12.7968V28.1493H17.2153V30.6769H12.7968V36.6667H10.5Z" fill="white"/>
<path d="M19.2376 36.6667V22.1667H21.5344V34.1391H26.1916V36.6667H19.2376Z" fill="white"/>
<path d="M27.7126 36.6667V22.1667H30.0094V34.1391H34.6667V36.6667H27.7126Z" fill="white"/>
</g>
<defs>
<clipPath id="clip0_2038_468">
<rect width="50" height="50" fill="white"/>
</clipPath>
</defs>
</svg>
