<svg width="50" height="50" viewBox="0 0 50 50" fill="none" xmlns="http://www.w3.org/2000/svg">
<g clip-path="url(#clip0_2034_579)">
<path d="M43.7239 20.105L25.9114 3.29894C25.9027 3.29135 25.8945 3.28316 25.8869 3.27445C25.2311 2.67803 24.3764 2.34753 23.49 2.34753C22.6035 2.34753 21.7489 2.67803 21.0931 3.27445L21.0686 3.29894L3.27613 20.105C2.9132 20.4388 2.62349 20.8442 2.42534 21.2957C2.2272 21.7472 2.12493 22.2349 2.125 22.7279V43.3125C2.125 44.2573 2.50033 45.1635 3.16843 45.8316C3.83653 46.4997 4.74267 46.875 5.6875 46.875H16.375C17.3198 46.875 18.226 46.4997 18.8941 45.8316C19.5622 45.1635 19.9375 44.2573 19.9375 43.3125V32.625H27.0625V43.3125C27.0625 44.2573 27.4378 45.1635 28.1059 45.8316C28.774 46.4997 29.6802 46.875 30.625 46.875H41.3125C42.2573 46.875 43.1635 46.4997 43.8316 45.8316C44.4997 45.1635 44.875 44.2573 44.875 43.3125V22.7279C44.8751 22.2349 44.7728 21.7472 44.5747 21.2957C44.3765 20.8442 44.0868 20.4388 43.7239 20.105ZM41.3125 43.3125H30.625V32.625C30.625 31.6802 30.2497 30.774 29.5816 30.1059C28.9135 29.4378 28.0073 29.0625 27.0625 29.0625H19.9375C18.9927 29.0625 18.0865 29.4378 17.4184 30.1059C16.7503 30.774 16.375 31.6802 16.375 32.625V43.3125H5.6875V22.7279L5.71199 22.7057L23.5 5.90625L41.2902 22.7012L41.3147 22.7235L41.3125 43.3125Z" fill="white"/>
</g>
<defs>
<clipPath id="clip0_2034_579">
<rect width="50" height="50" fill="white"/>
</clipPath>
</defs>
</svg>
