<svg width="27" height="27" viewBox="0 0 27 27" fill="none" xmlns="http://www.w3.org/2000/svg">
<path d="M20.3344 1.74829L25.029 6.64204V25.2518H7.4917V25.3125H25.0889V6.70363L20.3344 1.74829Z" fill="#909090"/>
<path d="M20.276 1.6875H7.43164V25.2517H25.0289V6.64284L20.276 1.6875Z" fill="#F4F4F4"/>
<path d="M7.30269 2.95312H1.91113V8.71341H18.8705V2.95312H7.30269Z" fill="#7A7B7C"/>
<path d="M18.9607 8.61557H2.02075V2.85107H18.9607V8.61557Z" fill="#DD2025"/>
<path d="M7.63769 3.8255H6.53491V7.8755H7.40229V6.50947L7.59382 6.52044C7.77999 6.51787 7.96445 6.48452 8.13972 6.42172C8.29381 6.3694 8.43543 6.28581 8.55569 6.17619C8.67902 6.07278 8.77591 5.94146 8.83835 5.79313C8.92377 5.54735 8.95402 5.28578 8.92694 5.027C8.92213 4.8421 8.88971 4.65895 8.83076 4.48363C8.77763 4.3569 8.69863 4.24267 8.59881 4.14823C8.499 4.05379 8.38057 3.98123 8.2511 3.93519C8.13949 3.89385 8.02381 3.86444 7.90601 3.84744C7.81702 3.83295 7.72701 3.82561 7.63685 3.8255M7.47738 5.76106H7.40229V4.51231H7.56513C7.637 4.50713 7.70912 4.51816 7.77615 4.5446C7.84319 4.57103 7.90342 4.61219 7.95241 4.66503C8.05393 4.80089 8.10816 4.96625 8.10682 5.13585C8.10682 5.34341 8.10682 5.53156 7.91951 5.66403C7.7846 5.73835 7.63097 5.77261 7.47738 5.76106ZM10.5748 3.81453C10.4811 3.81453 10.39 3.82128 10.3259 3.82381L10.1251 3.82888H9.46694V7.87888H10.2415C10.5375 7.88649 10.8321 7.83634 11.1089 7.73122C11.3317 7.64321 11.529 7.50079 11.6826 7.31694C11.8332 7.13229 11.9407 6.9164 11.9973 6.68497C12.0639 6.42335 12.0962 6.15419 12.0935 5.88425C12.1101 5.56545 12.0854 5.24584 12.0201 4.93335C11.9577 4.70358 11.8421 4.49173 11.6826 4.31488C11.5576 4.17187 11.4038 4.05686 11.2312 3.97738C11.0834 3.90886 10.9279 3.85844 10.768 3.82719C10.7044 3.81677 10.6401 3.81197 10.5756 3.81285M10.4221 7.13469H10.3377V4.54944H10.3487C10.5226 4.52933 10.6986 4.56072 10.8549 4.63972C10.9694 4.73112 11.0626 4.84627 11.1283 4.97722C11.1991 5.11503 11.24 5.26629 11.2481 5.42103C11.2557 5.60666 11.2481 5.75853 11.2481 5.88425C11.2512 6.02906 11.2419 6.17388 11.2203 6.3171C11.1937 6.46396 11.1457 6.60612 11.0777 6.73897C11.0008 6.86287 10.8959 6.96693 10.7714 7.04272C10.6674 7.11022 10.544 7.14165 10.4204 7.13216M14.7066 3.82888H12.6563V7.87888H13.5237V6.27238H14.6206V5.51975H13.5237V4.5815H14.7049V3.82888" fill="#464648"/>
<path d="M18.3778 17.0901C18.3778 17.0901 21.0677 16.6025 21.0677 17.5213C21.0677 18.4402 19.4013 18.0664 18.3778 17.0901ZM16.3891 17.1602C15.9617 17.2544 15.5452 17.3926 15.1463 17.5728L15.4838 16.8134C15.8213 16.054 16.1714 15.0187 16.1714 15.0187C16.5731 15.6972 17.0418 16.3338 17.5704 16.9189C17.1724 16.9781 16.7781 17.0593 16.3891 17.1619V17.1602ZM15.3243 11.6758C15.3243 10.8751 15.5833 10.6566 15.785 10.6566C15.9866 10.6566 16.2136 10.7536 16.2212 11.4488C16.1554 12.1479 16.009 12.8371 15.785 13.5025C15.477 12.9442 15.3181 12.3159 15.3234 11.6783L15.3243 11.6758ZM11.4017 20.5487C10.5765 20.0551 13.1322 18.5355 13.5955 18.4866C13.5929 18.4874 12.2657 21.0651 11.4017 20.5487ZM21.8532 17.6302C21.8448 17.5458 21.7689 16.6117 20.1067 16.6514C19.4138 16.6393 18.7212 16.6881 18.037 16.7974C17.3737 16.1297 16.8027 15.3763 16.3393 14.5572C16.6311 13.7129 16.8079 12.8331 16.865 11.9416C16.8405 10.9291 16.5984 10.3486 15.8221 10.357C15.0459 10.3655 14.9328 11.0447 15.0349 12.0555C15.1348 12.7348 15.3235 13.398 15.596 14.0282C15.596 14.0282 15.2374 15.1445 14.7632 16.2548C14.289 17.3652 13.965 17.9474 13.965 17.9474C13.1403 18.2155 12.364 18.6144 11.6658 19.1287C10.9705 19.7758 10.6879 20.2728 11.0541 20.7697C11.3696 21.1984 12.4741 21.2954 13.4613 20.0019C13.9849 19.3332 14.4641 18.6308 14.8957 17.8993C14.8957 17.8993 16.4009 17.4867 16.8692 17.3737C17.3375 17.2606 17.9036 17.1712 17.9036 17.1712C17.9036 17.1712 19.2781 18.5541 20.6036 18.5051C21.9292 18.4562 21.865 17.7128 21.8566 17.6318" fill="#DD2025"/>
<path d="M20.2112 1.75244V6.70779H24.964L20.2112 1.75244Z" fill="#909090"/>
<path d="M20.2761 1.6875V6.64284H25.029L20.2761 1.6875Z" fill="#F4F4F4"/>
<path d="M7.57275 3.76056H6.46997V7.81056H7.34072V6.44537L7.5331 6.45634C7.71926 6.45378 7.90372 6.42042 8.079 6.35762C8.23309 6.3053 8.37471 6.22171 8.49497 6.11209C8.61737 6.0084 8.71338 5.87711 8.7751 5.72903C8.86052 5.48326 8.89077 5.22169 8.86369 4.9629C8.85888 4.778 8.82646 4.59485 8.7675 4.41953C8.71437 4.29281 8.63537 4.17857 8.53556 4.08413C8.43574 3.98969 8.31731 3.91713 8.18785 3.87109C8.07572 3.82935 7.95947 3.79965 7.84106 3.7825C7.75208 3.76801 7.66207 3.76067 7.57191 3.76056M7.41244 5.69612H7.33735V4.44737H7.50103C7.5729 4.44219 7.64502 4.45322 7.71205 4.47966C7.77909 4.50609 7.83932 4.54725 7.88831 4.60009C7.98983 4.73595 8.04407 4.90131 8.04272 5.0709C8.04272 5.27847 8.04272 5.46662 7.85541 5.59909C7.7205 5.6734 7.56687 5.70683 7.41328 5.69528M10.5098 3.74959C10.4162 3.74959 10.3251 3.75634 10.2609 3.75887L10.0627 3.76394H9.40453V7.81394H10.1791C10.4751 7.82155 10.7697 7.77139 11.0465 7.66628C11.2693 7.57827 11.4666 7.43584 11.6202 7.252C11.7708 7.06735 11.8783 6.85146 11.9349 6.62003C12.0015 6.3584 12.0338 6.08925 12.0311 5.81931C12.0476 5.5005 12.023 5.1809 11.9577 4.8684C11.8953 4.63864 11.7796 4.42679 11.6202 4.24994C11.4952 4.10693 11.3414 3.99192 11.1688 3.91244C11.021 3.84392 10.8655 3.7935 10.7056 3.76225C10.642 3.75183 10.5776 3.74703 10.5132 3.7479M10.3597 7.06975H10.2753V4.4845H10.2863C10.4602 4.46438 10.6362 4.49578 10.7925 4.57478C10.907 4.66618 11.0002 4.78133 11.0659 4.91228C11.1367 5.05009 11.1775 5.20135 11.1857 5.35609C11.1933 5.54172 11.1857 5.69359 11.1857 5.81931C11.1888 5.96412 11.1795 6.10894 11.1578 6.25215C11.1313 6.39902 11.0833 6.54117 11.0153 6.67403C10.9384 6.79793 10.8335 6.90199 10.709 6.97778C10.6049 7.04528 10.4816 7.07671 10.358 7.06722M14.6417 3.76394H12.5914V7.81394H13.4588V6.20744H14.5556V5.45481H13.4588V4.51656H14.64V3.76394" fill="white"/>
</svg>
