<svg width="12" height="10" viewBox="0 0 12 10" fill="none" xmlns="http://www.w3.org/2000/svg">
<path d="M2.4375 0.5C1.98995 0.5 1.56072 0.67779 1.24426 0.994257C0.92779 1.31072 0.75 1.73995 0.75 2.1875V7.8125C0.75 8.26005 0.92779 8.68927 1.24426 9.00574C1.56072 9.32221 1.98995 9.5 2.4375 9.5H9.5625C10.0101 9.5 10.4393 9.32221 10.7557 9.00574C11.0722 8.68927 11.25 8.26005 11.25 7.8125V2.1875C11.25 1.73995 11.0722 1.31072 10.7557 0.994257C10.4393 0.67779 10.0101 0.5 9.5625 0.5H2.4375ZM1.5 2.1875C1.5 1.93886 1.59877 1.7004 1.77459 1.52459C1.9504 1.34877 2.18886 1.25 2.4375 1.25H9.5625C9.81114 1.25 10.0496 1.34877 10.2254 1.52459C10.4012 1.7004 10.5 1.93886 10.5 2.1875V7.8125C10.5 8.06114 10.4012 8.2996 10.2254 8.47541C10.0496 8.65123 9.81114 8.75 9.5625 8.75H2.4375C2.18886 8.75 1.9504 8.65123 1.77459 8.47541C1.59877 8.2996 1.5 8.06114 1.5 7.8125V2.1875ZM4.5 3.50038V6.5C4.50004 6.56471 4.51683 6.62832 4.54874 6.68462C4.58064 6.74093 4.62657 6.78801 4.68206 6.82131C4.73756 6.85461 4.80072 6.87297 4.86541 6.87463C4.93011 6.87628 4.99413 6.86117 5.05125 6.83075L7.863 5.33112C7.9229 5.29912 7.97299 5.25144 8.00791 5.19319C8.04284 5.13494 8.06128 5.06829 8.06128 5.00037C8.06128 4.93246 8.04284 4.86581 8.00791 4.80756C7.97299 4.74931 7.9229 4.70163 7.863 4.66963L5.05162 3.16963C4.99446 3.1391 4.93037 3.12392 4.86559 3.12554C4.80081 3.12717 4.73756 3.14555 4.682 3.1789C4.62644 3.21225 4.58047 3.25943 4.54858 3.31584C4.51668 3.37224 4.49994 3.43558 4.5 3.50038Z" fill="#1E1E1E"/>
</svg>
