<svg width="12" height="12" viewBox="0 0 12 12" fill="none" xmlns="http://www.w3.org/2000/svg">
<path d="M2.4375 1.5C1.98995 1.5 1.56072 1.67779 1.24426 1.99426C0.92779 2.31072 0.75 2.73995 0.75 3.1875V8.8125C0.75 9.26005 0.92779 9.68927 1.24426 10.0057C1.56072 10.3222 1.98995 10.5 2.4375 10.5H9.5625C10.0101 10.5 10.4393 10.3222 10.7557 10.0057C11.0722 9.68927 11.25 9.26005 11.25 8.8125V3.1875C11.25 2.73995 11.0722 2.31072 10.7557 1.99426C10.4393 1.67779 10.0101 1.5 9.5625 1.5H2.4375ZM1.5 3.1875C1.5 2.93886 1.59877 2.7004 1.77459 2.52459C1.9504 2.34877 2.18886 2.25 2.4375 2.25H9.5625C9.81114 2.25 10.0496 2.34877 10.2254 2.52459C10.4012 2.7004 10.5 2.93886 10.5 3.1875V8.8125C10.5 9.06114 10.4012 9.2996 10.2254 9.47541C10.0496 9.65123 9.81114 9.75 9.5625 9.75H2.4375C2.18886 9.75 1.9504 9.65123 1.77459 9.47541C1.59877 9.2996 1.5 9.06114 1.5 8.8125V3.1875ZM4.5 4.50038V7.5C4.50004 7.56471 4.51683 7.62832 4.54874 7.68462C4.58064 7.74093 4.62657 7.78801 4.68206 7.82131C4.73756 7.85461 4.80072 7.87297 4.86541 7.87463C4.93011 7.87628 4.99413 7.86117 5.05125 7.83075L7.863 6.33112C7.9229 6.29912 7.97299 6.25144 8.00791 6.19319C8.04284 6.13494 8.06128 6.06829 8.06128 6.00037C8.06128 5.93246 8.04284 5.86581 8.00791 5.80756C7.97299 5.74931 7.9229 5.70163 7.863 5.66963L5.05162 4.16963C4.99446 4.1391 4.93037 4.12392 4.86559 4.12554C4.80081 4.12717 4.73756 4.14555 4.682 4.1789C4.62644 4.21225 4.58047 4.25943 4.54858 4.31584C4.51668 4.37224 4.49994 4.43558 4.5 4.50038Z" fill="#BBBBBB"/>
</svg>
