<svg width="50" height="50" viewBox="0 0 50 50" fill="none" xmlns="http://www.w3.org/2000/svg">
<g clip-path="url(#clip0_2034_580)">
<path fill-rule="evenodd" clip-rule="evenodd" d="M9.39368 26.726C4.87913 25.6577 1.51489 21.5969 1.51489 16.7578C1.51489 11.9186 4.87913 7.85791 9.39368 6.78955V6.51536C9.39368 3.90433 11.5099 1.78809 14.121 1.78809H32.4959C33.8274 1.78809 35.0974 2.35063 35.994 3.33548L42.8313 10.8566C43.6223 11.7264 44.0603 12.8609 44.0603 14.0365V41.182C44.0603 42.4363 43.5624 43.6386 42.6753 44.5242C41.7897 45.4114 40.5874 45.9093 39.3331 45.9093H14.121C12.8666 45.9093 11.6643 45.4114 10.7788 44.5242C9.89162 43.6386 9.39368 42.4363 9.39368 41.182V26.726ZM10.1816 9.84336C9.9121 9.90324 9.65053 9.98044 9.39368 10.0703C6.64083 11.0457 4.66641 13.6725 4.66641 16.7578C4.66641 19.8431 6.64083 22.4699 9.39368 23.4453C10.1327 23.7069 10.9285 23.8487 11.7573 23.8487C12.0236 23.8487 12.2868 23.8345 12.5452 23.8046C15.5628 23.4705 18.0115 21.2408 18.6717 18.3335H13.3331C12.4979 18.3335 11.6959 18.0011 11.105 17.4101C10.514 16.8192 10.1816 16.0172 10.1816 15.182V9.84336ZM18.6717 15.182C18.0698 12.5332 15.9819 10.4453 13.3331 9.84336V15.182H18.6717ZM29.8785 4.9396H14.121C13.2511 4.9396 12.5452 5.64554 12.5452 6.51536V6.54529C17.8303 6.94869 21.9997 11.3703 21.9997 16.7578C21.9997 22.1453 17.8303 26.5669 12.5452 26.9703V41.182C12.5452 41.5996 12.7106 42.0014 13.0069 42.2961C13.3016 42.5923 13.7034 42.7578 14.121 42.7578H39.3331C39.7506 42.7578 40.1525 42.5923 40.4471 42.2961C40.7434 42.0014 40.9088 41.5996 40.9088 41.182V15.9699H34.6058C31.9948 15.9699 29.8785 13.8537 29.8785 11.2426V4.9396ZM37.7573 38.0305C37.7573 38.9003 37.0514 39.6063 36.1816 39.6063C35.3117 39.6063 34.6058 38.9003 34.6058 38.0305V27.0002C34.6058 26.1304 35.3117 25.4245 36.1816 25.4245C37.0514 25.4245 37.7573 26.1304 37.7573 27.0002V38.0305ZM18.8482 38.0305C18.8482 38.9003 18.1423 39.6063 17.2725 39.6063C16.4026 39.6063 15.6967 38.9003 15.6967 38.0305V36.4548C15.6967 35.5849 16.4026 34.879 17.2725 34.879C18.1423 34.879 18.8482 35.5849 18.8482 36.4548V38.0305ZM25.1513 38.0305C25.1513 38.9003 24.4453 39.6063 23.5755 39.6063C22.7057 39.6063 21.9997 38.9003 21.9997 38.0305V31.7275C21.9997 30.8577 22.7057 30.1517 23.5755 30.1517C24.4453 30.1517 25.1513 30.8577 25.1513 31.7275V38.0305ZM31.4543 38.0305C31.4543 38.9003 30.7483 39.6063 29.8785 39.6063C29.0087 39.6063 28.3028 38.9003 28.3028 38.0305V33.3032C28.3028 32.4334 29.0087 31.7275 29.8785 31.7275C30.7483 31.7275 31.4543 32.4334 31.4543 33.3032V38.0305ZM40.3557 12.8184L33.6619 5.45488C33.487 5.26264 33.2696 5.11923 33.03 5.03257V11.2426C33.03 12.1124 33.736 12.8184 34.6058 12.8184H40.3557Z" fill="white"/>
</g>
<defs>
<clipPath id="clip0_2034_580">
<rect width="50" height="50" fill="white"/>
</clipPath>
</defs>
</svg>
