<svg width="50" height="50" viewBox="0 0 50 50" fill="none" xmlns="http://www.w3.org/2000/svg">
<g clip-path="url(#clip0_2038_454)">
<path d="M42.5809 22.332H7.41913C5.54384 22.332 4 20.7882 4 18.9129V16.2172C4 14.9077 4.72339 13.7357 5.89545 13.1497L23.4763 4.35922C24.4341 3.89039 25.586 3.87023 26.5237 4.35922L44.1045 13.1497C45.2766 13.7357 46 14.9077 46 16.2172V18.9129C46 20.7882 44.4562 22.332 42.5809 22.332ZM25 6.93774C25 6.93774 24.8443 6.93774 24.7857 6.99635L7.20486 15.7868C7.02905 15.8655 6.93199 16.0413 6.93199 16.2171V18.9129C6.93199 19.1858 7.14626 19.4019 7.42098 19.4019H42.5827C42.8556 19.4019 43.0717 19.1876 43.0717 18.9129V16.2171C43.0717 16.0212 42.9746 15.8655 42.7988 15.7868L25.2142 6.99635C25.2142 6.99635 25.0769 6.93774 25 6.93774Z" fill="white"/>
<path d="M40.6267 40.147C39.8264 40.147 39.1616 39.4822 39.1616 38.6819V20.8666C39.1616 20.0663 39.8264 19.4015 40.6267 19.4015C41.427 19.4015 42.0918 20.0663 42.0918 20.8666V38.6819C42.0918 39.4822 41.427 40.147 40.6267 40.147Z" fill="white"/>
<path d="M30.2156 40.147C29.4153 40.147 28.7505 39.4822 28.7505 38.6819V20.8666C28.7505 20.0663 29.4153 19.4015 30.2156 19.4015C31.0158 19.4015 31.6806 20.0663 31.6806 20.8666V38.6819C31.6806 39.4822 31.0158 40.147 30.2156 40.147Z" fill="white"/>
<path d="M19.7844 40.147C18.9841 40.147 18.3193 39.4822 18.3193 38.6819V20.8666C18.3193 20.0663 18.9841 19.4015 19.7844 19.4015C20.5847 19.4015 21.2495 20.0663 21.2495 20.8666V38.6819C21.2495 39.4822 20.5847 40.147 19.7844 40.147Z" fill="white"/>
<path d="M9.37328 40.147C8.57299 40.147 7.9082 39.4822 7.9082 38.6819V20.8666C7.9082 20.0663 8.57299 19.4015 9.37328 19.4015C10.1736 19.4015 10.8383 20.0663 10.8383 20.8666V38.6819C10.8383 39.4822 10.1736 40.147 9.37328 40.147Z" fill="white"/>
<path d="M44.5349 40.1469H5.46507C4.66479 40.1469 4 39.4821 4 38.6818C4 37.8815 4.66479 37.2167 5.46507 37.2167H44.533C45.3333 37.2167 45.9981 37.8815 45.9981 38.6818C45.9981 39.4821 45.3333 40.1469 44.533 40.1469H44.5349Z" fill="white"/>
<path d="M44.5349 46.0075H5.46507C4.66479 46.0075 4 45.3427 4 44.5424C4 43.7421 4.66479 43.0773 5.46507 43.0773H44.533C45.3333 43.0773 45.9981 43.7421 45.9981 44.5424C45.9981 45.3427 45.3333 46.0075 44.533 46.0075H44.5349Z" fill="white"/>
</g>
<defs>
<clipPath id="clip0_2038_454">
<rect width="50" height="50" fill="white"/>
</clipPath>
</defs>
</svg>
