<svg width="50" height="50" viewBox="0 0 50 50" fill="none" xmlns="http://www.w3.org/2000/svg">
<g clip-path="url(#clip0_2038_471)">
<path fill-rule="evenodd" clip-rule="evenodd" d="M23.5844 5.18756C12.3323 5.18756 3.1875 14.3394 3.1875 25.5916C3.1875 36.8438 12.3323 45.9886 23.5844 45.9886C25.6256 45.9886 27.66 45.6834 29.6103 45.0809C29.917 44.9846 30.1731 44.7708 30.3227 44.4864C30.4722 44.2019 30.5032 43.8697 30.4087 43.5625C30.3144 43.2541 30.1015 42.9957 29.8168 42.8443C29.532 42.6928 29.1988 42.6605 28.8903 42.7546C28.7718 42.7914 28.6531 42.825 28.5339 42.8591C28.8881 42.3535 29.2201 41.7982 29.5295 41.2006C29.6763 40.9146 29.704 40.5821 29.6065 40.2758C29.509 39.9695 29.2942 39.7142 29.0091 39.5658C28.867 39.4916 28.7117 39.4462 28.5521 39.4322C28.3924 39.4182 28.2316 39.4359 28.0788 39.4842C27.926 39.5326 27.7843 39.6107 27.6617 39.7139C27.5392 39.8172 27.4383 39.9437 27.3648 40.0861C26.0857 42.557 24.6801 43.5529 23.5843 43.5529C23.5416 43.5529 23.4988 43.5531 23.456 43.5505C22.8142 43.5124 22.1456 43.1827 21.4102 42.4218C20.6256 41.6103 19.8334 40.3314 19.1647 38.696C17.933 35.6838 17.0985 31.4834 16.9739 26.8057H30.1948C30.1819 27.3252 30.1621 27.8427 30.1307 28.3574C30.1118 28.679 30.2213 28.995 30.4351 29.2359C30.6489 29.4769 30.9496 29.6233 31.2712 29.6429C31.5924 29.6611 31.9078 29.5513 32.1482 29.3375C32.3887 29.1238 32.5347 28.8235 32.5543 28.5023C32.5888 27.9385 32.6133 27.3727 32.628 26.8057H41.5124C41.4233 28.1163 41.1915 29.4133 40.8186 30.6765C40.7725 30.8297 40.7572 30.9905 40.7733 31.1496C40.7895 31.3088 40.8369 31.4632 40.9128 31.604C40.9888 31.7448 41.0917 31.8693 41.2158 31.9703C41.3399 32.0712 41.4827 32.1468 41.636 32.1925C41.7896 32.2384 41.9509 32.2535 42.1104 32.2368C42.2699 32.2202 42.4246 32.1722 42.5655 32.0955C42.7063 32.0189 42.8307 31.9152 42.9313 31.7903C43.032 31.6654 43.107 31.5219 43.152 31.368C43.7056 29.4926 43.9884 27.5469 43.9884 25.5915C43.9884 14.3393 34.8365 5.18756 23.5844 5.18756ZM23.5844 7.62075C24.2654 7.62075 24.9812 7.94981 25.7657 8.7613C26.5502 9.5728 27.3329 10.8541 28.0017 12.4895C29.2327 15.5001 30.0671 19.6958 30.1925 24.3703H16.9739C17.0993 19.6958 17.9337 15.5001 19.1647 12.4895C19.8335 10.8541 20.6257 9.5728 21.4102 8.7613C22.1947 7.94981 22.9033 7.62076 23.5844 7.62075ZM28.5268 8.30746C35.678 10.3434 40.9982 16.6911 41.5124 24.3703H32.628C32.5054 19.424 31.6447 14.9597 30.2566 11.5652C29.7527 10.3329 29.1796 9.23656 28.5268 8.30746ZM18.642 8.30989C17.9896 9.23872 17.4158 10.3335 16.9121 11.5652C15.5241 14.9598 14.6633 19.4241 14.5408 24.3703H5.66345C6.17708 16.6913 11.493 10.346 18.642 8.30989ZM5.66345 26.8058H14.5384C14.6603 31.754 15.5234 36.2146 16.9121 39.611C17.4163 40.8438 17.9888 41.9393 18.642 42.8687C11.4898 40.8339 6.17336 34.4888 5.66345 26.8058ZM31.4138 31.9977C31.2239 31.9874 31.0342 32.0217 30.86 32.0979C30.6857 32.1742 30.5318 32.2902 30.4105 32.4366C30.2892 32.5831 30.2039 32.756 30.1615 32.9414C30.1191 33.1268 30.1208 33.3196 30.1663 33.5042L33.013 45.1617C33.0641 45.3709 33.1699 45.5629 33.3195 45.7179C33.4691 45.8729 33.6572 45.9854 33.8646 46.0438C34.0719 46.1023 34.2911 46.1047 34.4997 46.0507C34.7082 45.9968 34.8987 45.8884 35.0517 45.7367L36.8219 43.9665L39.0389 46.1763C39.2668 46.4029 39.5752 46.5301 39.8967 46.5301C40.2181 46.5301 40.5265 46.4029 40.7545 46.1763L44.1951 42.7356C44.421 42.5077 44.5478 42.1999 44.5478 41.879C44.5478 41.5581 44.421 41.2503 44.1951 41.0224L41.9758 38.8031L43.8625 36.9164C44.0142 36.7641 44.1229 36.5743 44.1774 36.3663C44.2319 36.1583 44.2304 35.9396 44.1729 35.7325C44.1154 35.5253 44.0041 35.3371 43.8502 35.1869C43.6964 35.0367 43.5054 34.93 43.2969 34.8777L31.6395 32.031C31.5655 32.0129 31.4899 32.0017 31.4138 31.9977ZM33.013 34.8705L40.619 36.7287L39.3977 37.95C39.1711 38.178 39.0439 38.4864 39.0439 38.8078C39.0439 39.1293 39.1711 39.4376 39.3977 39.6656L41.6075 41.8826L39.8919 43.5981L37.6845 41.3812C37.5714 41.2676 37.437 41.1774 37.289 41.1158C37.141 41.0543 36.9822 41.0226 36.8219 41.0226C36.6616 41.0226 36.5029 41.0543 36.3549 41.1158C36.2068 41.1774 36.0724 41.2676 35.9594 41.3812L34.864 42.4766L33.013 34.8705Z" fill="white" stroke="white" stroke-width="0.2"/>
</g>
<defs>
<clipPath id="clip0_2038_471">
<rect width="50" height="50" fill="white"/>
</clipPath>
</defs>
</svg>
