<svg width="11" height="12" viewBox="0 0 11 12" fill="none" xmlns="http://www.w3.org/2000/svg">
<path fill-rule="evenodd" clip-rule="evenodd" d="M4.76236 0.549707C4.98281 0.529649 5.20505 0.554483 5.41564 0.622709C5.62623 0.690935 5.82081 0.801138 5.98762 0.946662L6.06952 1.0231L10.3405 5.2946C10.6344 5.58859 10.8056 5.98334 10.8192 6.39883C10.8329 6.81433 10.6881 7.21949 10.4142 7.53218L10.3405 7.61081L7.25165 10.6996C6.95766 10.9936 6.56291 11.1647 6.14742 11.1784C5.73192 11.1921 5.32677 11.0473 5.01407 10.7733L4.93544 10.6996L0.663401 6.42813C0.506954 6.2717 0.383819 6.08519 0.301425 5.87986C0.21903 5.67453 0.179085 5.45464 0.183998 5.23345L0.190004 5.12151L0.447724 2.29041C0.480812 1.92555 0.635255 1.58232 0.88637 1.31556C1.13748 1.04881 1.47077 0.873938 1.83297 0.818894L1.93071 0.807428L4.76236 0.549707ZM4.93053 1.63574L4.86118 1.63737L2.03008 1.89509C1.91398 1.90558 1.80428 1.95295 1.71703 2.03027C1.62979 2.10759 1.56958 2.21081 1.54522 2.32481L1.53594 2.38924L1.27822 5.22034C1.26581 5.35791 1.306 5.49508 1.3907 5.60419L1.43602 5.65606L5.70751 9.92756C5.80153 10.0216 5.92663 10.078 6.05932 10.0864C6.19202 10.0947 6.3232 10.0544 6.42826 9.97288L6.47958 9.92756L9.5684 6.83874C9.66241 6.74472 9.71889 6.61963 9.72723 6.48693C9.73558 6.35423 9.69522 6.22305 9.61372 6.118L9.5684 6.06667L5.29691 1.79517C5.19931 1.69765 5.06841 1.64068 4.93053 1.63574ZM3.00418 3.36388C3.1563 3.21176 3.33689 3.09109 3.53565 3.00877C3.7344 2.92644 3.94743 2.88407 4.16256 2.88407C4.37769 2.88407 4.59071 2.92644 4.78946 3.00877C4.98822 3.09109 5.16881 3.21176 5.32093 3.36388C5.47305 3.516 5.59372 3.6966 5.67605 3.89535C5.75837 4.0941 5.80075 4.30713 5.80075 4.52226C5.80075 4.73739 5.75837 4.95041 5.67605 5.14917C5.59372 5.34792 5.47305 5.52852 5.32093 5.68064C5.01371 5.98786 4.59703 6.16045 4.16256 6.16045C3.72808 6.16045 3.3114 5.98786 3.00418 5.68064C2.69696 5.37341 2.52436 4.95673 2.52436 4.52226C2.52436 4.08778 2.69696 3.6711 3.00418 3.36388ZM4.54886 4.13595C4.49817 4.08522 4.43798 4.04497 4.37173 4.0175C4.30548 3.99003 4.23447 3.97588 4.16275 3.97586C4.09103 3.97583 4.02001 3.98993 3.95374 4.01736C3.88747 4.04478 3.82725 4.08498 3.77652 4.13568C3.72579 4.18637 3.68554 4.24656 3.65807 4.31281C3.6306 4.37906 3.61645 4.45007 3.61643 4.52179C3.6164 4.59351 3.6305 4.66453 3.65793 4.7308C3.68535 4.79707 3.72555 4.85729 3.77625 4.90802C3.87863 5.01048 4.01752 5.06806 4.16236 5.06811C4.3072 5.06817 4.44613 5.01068 4.54859 4.90829C4.65105 4.80591 4.70863 4.66702 4.70868 4.52218C4.70873 4.37734 4.65125 4.23841 4.54886 4.13595Z" fill="black"/>
</svg>
