<svg width="37" height="39" viewBox="0 0 37 39" fill="none" xmlns="http://www.w3.org/2000/svg">
<path opacity="0.5" d="M36.6667 27.0428V25.2095C36.6667 20.023 36.6667 17.4325 35.0552 15.821C33.4437 14.2095 30.8513 14.2095 25.6667 14.2095H11C5.81167 14.2095 3.22117 14.2095 1.60967 15.8228C0 17.4306 0 20.0211 0 25.2058V27.0428C0 32.2275 -1.09275e-07 34.8198 1.6115 36.4313C3.22117 38.0428 5.81533 38.0428 11 38.0428H25.6667C30.8513 38.0428 33.4455 38.0428 35.0552 36.4313C36.6667 34.8198 36.6667 32.2275 36.6667 27.0428Z" fill="#7B70FF"/>
<path fill-rule="evenodd" clip-rule="evenodd" d="M18.3327 26.5844C18.6974 26.5844 19.0471 26.4395 19.305 26.1816C19.5628 25.9238 19.7077 25.574 19.7077 25.2094V5.09219L22.7877 8.68736C23.025 8.96451 23.3626 9.13605 23.7264 9.16424C24.0902 9.19243 24.4502 9.07497 24.7274 8.83769C25.0045 8.60041 25.1761 8.26275 25.2042 7.89899C25.2324 7.53523 25.115 7.17517 24.8777 6.89802L19.3777 0.481356C19.2486 0.330409 19.0884 0.209219 18.908 0.126123C18.7276 0.0430278 18.5313 0 18.3327 0C18.1341 0 17.9378 0.0430278 17.7574 0.126123C17.577 0.209219 17.4168 0.330409 17.2877 0.481356L11.7877 6.89802C11.6702 7.03525 11.5809 7.19428 11.5249 7.36603C11.4688 7.53778 11.4472 7.71888 11.4611 7.89899C11.4751 8.07911 11.5244 8.25471 11.6062 8.41577C11.6881 8.57683 11.8008 8.7202 11.938 8.83769C12.0753 8.95518 12.2343 9.04449 12.406 9.10052C12.5778 9.15655 12.7589 9.1782 12.939 9.16424C13.1191 9.15028 13.2947 9.10098 13.4558 9.01916C13.6168 8.93733 13.7602 8.82459 13.8777 8.68736L16.9577 5.09402V25.2094C16.9577 25.9684 17.5737 26.5844 18.3327 26.5844Z" fill="#4448F5"/>
</svg>
