<svg width="50" height="50" viewBox="0 0 50 50" fill="none" xmlns="http://www.w3.org/2000/svg">
<g clip-path="url(#clip0_2038_462)">
<path d="M39.4062 5.62501H31.8993C30.9687 4.58307 29.8285 3.74942 28.5534 3.17864C27.2783 2.60785 25.897 2.31281 24.5 2.31281C23.103 2.31281 21.7217 2.60785 20.4466 3.17864C19.1715 3.74942 18.0313 4.58307 17.1007 5.62501H9.59375C8.71522 5.62501 7.87267 5.974 7.25146 6.59521C6.63024 7.21643 6.28125 8.05898 6.28125 8.93751V43.7188C6.28125 44.5973 6.63024 45.4398 7.25146 46.061C7.87267 46.6823 8.71522 47.0313 9.59375 47.0313H39.4062C40.2848 47.0313 41.1273 46.6823 41.7485 46.061C42.3698 45.4398 42.7188 44.5973 42.7188 43.7188V8.93751C42.7188 8.05898 42.3698 7.21643 41.7485 6.59521C41.1273 5.974 40.2848 5.62501 39.4062 5.62501ZM24.5 5.62501C26.2571 5.62501 27.9422 6.32299 29.1846 7.56542C30.427 8.80785 31.125 10.4929 31.125 12.25H17.875C17.875 10.4929 18.573 8.80785 19.8154 7.56542C21.0578 6.32299 22.7429 5.62501 24.5 5.62501ZM39.4062 43.7188H9.59375V8.93751H15.1318C14.7551 10.0013 14.5625 11.1215 14.5625 12.25V13.9063C14.5625 14.3455 14.737 14.7668 15.0476 15.0774C15.3582 15.388 15.7795 15.5625 16.2188 15.5625H32.7812C33.2205 15.5625 33.6418 15.388 33.9524 15.0774C34.263 14.7668 34.4375 14.3455 34.4375 13.9063V12.25C34.4375 11.1215 34.2449 10.0013 33.8682 8.93751H39.4062V43.7188Z" fill="white"/>
<path d="M21.7325 29.258L18.8559 29.2269C18.6616 29.2248 18.4712 29.2815 18.3093 29.3897C18.1473 29.4979 18.0214 29.6526 17.9476 29.8338C17.8739 30.015 17.8558 30.2143 17.8957 30.4059C17.9356 30.5976 18.0316 30.7728 18.1714 30.9088L25.2881 37.8351C25.4732 38.0153 25.7218 38.114 25.9792 38.1094C26.2365 38.1049 26.4815 37.9974 26.6603 37.8108C26.8391 37.6241 26.937 37.3736 26.9324 37.1142C26.9279 36.8548 26.8214 36.6078 26.6362 36.4276L21.2744 31.2104L21.7111 31.2151C22.9437 31.2272 24.1417 30.805 25.0983 30.0214C26.0548 29.2379 26.7098 28.1421 26.9501 26.9235L28.9338 26.945H28.9444C29.2018 26.9464 29.4492 26.8446 29.6321 26.6621C29.8151 26.4797 29.9186 26.2314 29.92 25.9719C29.9213 25.7125 29.8204 25.4631 29.6394 25.2787C29.4583 25.0943 29.212 24.9899 28.9546 24.9886L26.9721 24.9671C26.8213 24.0869 26.451 23.2599 25.8959 22.5637L28.98 22.5963H28.9907C29.2481 22.5977 29.4955 22.4959 29.6784 22.3135C29.8614 22.131 29.9649 21.8827 29.9663 21.6232C29.9676 21.3638 29.8667 21.1145 29.6856 20.93C29.5046 20.7456 29.2583 20.6413 29.0009 20.6399L21.8245 20.5623L18.9477 20.5313C18.6904 20.5285 18.4424 20.6289 18.2585 20.8104C18.0745 20.9919 17.9696 21.2396 17.9668 21.499C17.9641 21.7585 18.0637 22.0084 18.2437 22.1938C18.4238 22.3792 18.6695 22.485 18.9269 22.4878L21.8036 22.5187C22.5209 22.5268 23.2167 22.7669 23.7884 23.2036C24.3602 23.6404 24.7776 24.2506 24.9793 24.9446L18.9021 24.8793H18.8916C18.7642 24.8787 18.6378 24.9033 18.5199 24.9518C18.4019 25.0004 18.2945 25.0719 18.2039 25.1622C18.1133 25.2526 18.0413 25.36 17.9919 25.4785C17.9425 25.5969 17.9167 25.724 17.9161 25.8524C17.9154 25.9809 17.9398 26.1082 17.988 26.2272C18.0361 26.3461 18.1071 26.4543 18.1967 26.5456C18.2863 26.637 18.3929 26.7096 18.5104 26.7594C18.6279 26.8091 18.754 26.8351 18.8814 26.8358L24.9555 26.901C24.7379 27.589 24.3078 28.1889 23.7279 28.6129C23.1481 29.037 22.4489 29.263 21.7325 29.258Z" fill="white" stroke="white" stroke-width="0.6"/>
</g>
<defs>
<clipPath id="clip0_2038_462">
<rect width="50" height="50" fill="white"/>
</clipPath>
</defs>
</svg>
