<svg width="18" height="18" viewBox="0 0 18 18" fill="none" xmlns="http://www.w3.org/2000/svg">
<path d="M13.1042 10.7865C12.8815 10.6748 11.7857 10.1363 11.5817 10.0613C11.377 9.98703 11.2285 9.95028 11.0792 10.1738C10.9315 10.3965 10.504 10.8983 10.3742 11.0468C10.2445 11.196 10.114 11.214 9.89122 11.103C9.66847 10.9905 8.94997 10.7558 8.09872 9.99678C7.43647 9.40578 6.98872 8.67603 6.85897 8.45253C6.72922 8.22978 6.84547 8.10903 6.95647 7.99803C7.05697 7.89828 7.17997 7.73778 7.29097 7.60803C7.40197 7.47828 7.43947 7.38453 7.51447 7.23528C7.58872 7.08678 7.55197 6.95703 7.49572 6.84528C7.43947 6.73353 6.99397 5.63628 6.80872 5.19003C6.62722 4.75578 6.44347 4.81503 6.30697 4.80753C6.16454 4.8019 6.02201 4.7994 5.87947 4.80003C5.73097 4.80003 5.48947 4.85553 5.28547 5.07903C5.08147 5.30178 4.50547 5.84103 4.50547 6.93828C4.50547 8.03478 5.30422 9.09453 5.41522 9.24378C5.52622 9.39303 6.98722 11.6438 9.22297 12.609C9.75472 12.8385 10.1695 12.9758 10.4935 13.0778C11.0275 13.248 11.5135 13.224 11.8967 13.1663C12.325 13.1025 13.2152 12.627 13.4012 12.1065C13.5872 11.586 13.5872 11.1398 13.531 11.0468C13.4755 10.9538 13.3277 10.8983 13.1042 10.7865ZM9.03772 16.3388H9.03472C7.70704 16.3389 6.40378 15.9819 5.26147 15.3053L4.99072 15.1448L2.18497 15.8813L2.93347 13.1453L2.75722 12.8648C2.01505 11.683 1.62242 10.3153 1.62472 8.91978C1.62547 4.83228 4.95172 1.50678 9.04072 1.50678C11.0207 1.50678 12.8822 2.27928 14.2817 3.68028C14.9724 4.36761 15.5198 5.18517 15.8923 6.08559C16.2647 6.986 16.4548 7.95138 16.4515 8.92578C16.4492 13.0133 13.1237 16.3388 9.03772 16.3388ZM15.3475 2.61603C14.521 1.78439 13.5377 1.12496 12.4547 0.675917C11.3716 0.226876 10.2102 -0.00285393 9.03772 2.67592e-05C4.12147 2.67592e-05 0.120219 4.00128 0.117969 8.91903C0.117969 10.491 0.528219 12.0255 1.30897 13.3778L0.0429688 18L4.77172 16.7595C6.07962 17.4714 7.54487 17.8448 9.03397 17.8455H9.03772C13.9532 17.8455 17.9552 13.8443 17.9575 8.92578C17.9611 7.75373 17.7323 6.59258 17.2843 5.50953C16.8363 4.42647 16.178 3.443 15.3475 2.61603Z" fill="#177A32"/>
</svg>
